<svg width="26" height="26" viewBox="0 0 26 26" fill="none" xmlns="http://www.w3.org/2000/svg">
<path d="M10.0003 2C10.0003 0.89543 10.8957 0 12.0003 0H15.0003C16.1049 0 17.0003 0.895431 17.0003 2V24C17.0003 25.1046 16.1049 26 15.0003 26H12.0003C10.8957 26 10.0003 25.1046 10.0003 24V2Z" fill="white"/>
<path d="M2.00031 17C0.895736 17 0.000305176 16.1046 0.000305176 15V12C0.000305176 10.8954 0.895736 10 2.00031 10H24.0003C25.1049 10 26.0003 10.8954 26.0003 12V15C26.0003 16.1046 25.1049 17 24.0003 17H2.00031Z" fill="white"/>
</svg>
