<svg width="36" height="37" viewBox="0 0 36 37" fill="none" xmlns="http://www.w3.org/2000/svg">
<mask id="path-1-outside-1_23_310" maskUnits="userSpaceOnUse" x="0" y="0" width="36" height="37" fill="black">
<rect fill="white" width="36" height="37"/>
<path d="M16.0274 2.03998C15.7143 2.1239 15.326 2.35628 15.0818 2.60804C14.6748 3.02117 14.5746 3.36329 14.3867 4.89316C14.299 5.65487 14.1926 6.30684 14.1613 6.35203C14.1299 6.39721 14.0047 6.46176 13.8795 6.50049C13.7542 6.54568 13.3597 6.70706 13.0027 6.86844L12.3577 7.16537L12.126 6.97172C11.0427 6.08736 10.2223 5.46121 9.98434 5.33857C9.60235 5.13846 8.98865 5.09327 8.50646 5.24174C8.14951 5.34502 8.08689 5.40312 6.68415 6.84262C5.28767 8.28857 5.23131 8.35312 5.13112 8.72107C4.98708 9.22457 5.03092 9.85072 5.22505 10.2445C5.30646 10.4059 5.70724 10.9868 6.12055 11.5355C6.53385 12.0842 6.90333 12.5748 6.93464 12.6135C6.97221 12.6716 6.90333 12.9105 6.7092 13.3559C6.55264 13.7238 6.39609 14.1305 6.35225 14.2596C6.31468 14.3887 6.25205 14.5178 6.20822 14.5501C6.16438 14.5823 5.52564 14.6921 4.78669 14.7889C3.29628 14.9826 2.97691 15.0858 2.57613 15.499C2.44462 15.6281 2.26928 15.8863 2.16908 16.0735L2 16.4092V20.5405L2.16282 20.9019C2.25675 21.1021 2.43209 21.3732 2.5636 21.5087C2.97691 21.9348 3.30254 22.038 4.79295 22.2317C5.5319 22.3221 6.16438 22.4318 6.20822 22.4641C6.25205 22.4964 6.31468 22.6255 6.35225 22.7546C6.39609 22.8837 6.55264 23.2903 6.7092 23.6583C6.90333 24.1037 6.97221 24.3425 6.93464 24.4006C6.90333 24.4394 6.53385 24.93 6.12055 25.4786C5.70724 26.0273 5.30646 26.6083 5.22505 26.7697C5.03092 27.1699 4.98708 27.7896 5.13112 28.2931C5.23131 28.6546 5.29393 28.732 6.59022 30.0812C8.21213 31.766 8.31233 31.837 9.13894 31.837C9.61487 31.837 9.74638 31.8112 9.98434 31.6821C10.2035 31.5594 11.0614 30.901 12.2888 29.9133C12.3389 29.8682 12.5143 29.9198 12.8524 30.0812C13.1155 30.2038 13.5288 30.3781 13.7605 30.4556C14.0673 30.5653 14.1926 30.6492 14.2113 30.7396C14.2239 30.8106 14.3115 31.4626 14.3992 32.192C14.5746 33.6573 14.681 33.993 15.0881 34.419C15.2196 34.5546 15.4826 34.7353 15.6767 34.8322L16.0274 35H19.9726L20.3233 34.8322C20.5174 34.7353 20.7804 34.5546 20.9119 34.419C21.3252 33.9865 21.4254 33.6573 21.6133 32.121C21.701 31.3593 21.8074 30.7073 21.845 30.6686C21.8826 30.6299 22.1268 30.5137 22.3836 30.4168C22.6403 30.32 23.0223 30.1522 23.229 30.0424C23.6673 29.8165 23.5233 29.7455 24.7945 30.7719C25.3143 31.185 25.8591 31.5917 26.0157 31.6756C26.4039 31.8757 27.0051 31.9209 27.4935 31.7724C27.8442 31.6691 27.9194 31.6046 29.2282 30.2684C30.8626 28.5965 30.9315 28.4932 30.9315 27.6411C30.9315 26.9117 30.8814 26.8149 29.8795 25.4786C29.4661 24.93 29.0967 24.4394 29.0654 24.4006C29.0278 24.3425 29.0967 24.1037 29.2908 23.6583C29.4474 23.2903 29.6039 22.8837 29.6477 22.7546C29.6853 22.6255 29.7479 22.4964 29.7918 22.4641C29.8356 22.4318 30.4681 22.3221 31.207 22.2317C32.6975 22.038 33.0043 21.9412 33.4301 21.5087C33.5616 21.3732 33.7495 21.0956 33.8372 20.9019L34 20.5405V16.4737L33.8372 16.1122C33.7432 15.9121 33.5679 15.641 33.4364 15.5054C33.0231 15.0794 32.6975 14.9761 31.207 14.7825C30.4681 14.6921 29.8356 14.5823 29.7918 14.5501C29.7479 14.5178 29.6853 14.3887 29.6477 14.2596C29.6039 14.1305 29.4474 13.7238 29.2908 13.3559C29.0967 12.9105 29.0278 12.6716 29.0654 12.6135C29.0967 12.5748 29.4661 12.0842 29.8795 11.5355C30.2928 10.9868 30.6935 10.4059 30.775 10.2445C30.9691 9.85072 31.0129 9.22457 30.8689 8.72107C30.7687 8.35312 30.7123 8.28857 29.3159 6.84262C27.9131 5.40312 27.8505 5.34502 27.4935 5.24174C27.0051 5.09327 26.3977 5.13846 26.0157 5.33857C25.8591 5.42248 25.3143 5.82916 24.7945 6.24229C23.5233 7.26866 23.6673 7.19765 23.229 6.97172C23.0223 6.86198 22.6403 6.69415 22.3836 6.59732C22.1268 6.50049 21.8826 6.3843 21.845 6.34557C21.8074 6.30684 21.701 5.65487 21.6133 4.89316C21.4254 3.35683 21.3252 3.02762 20.9119 2.59513C20.7804 2.45957 20.5174 2.27882 20.3233 2.182L19.9726 2.01416L18.0939 2.00125C17.0607 1.9948 16.1339 2.01416 16.0274 2.03998ZM18.6888 11.6646C19.4654 11.755 20.1229 11.9486 20.7867 12.2714C22.2771 12.9944 23.3479 14.0982 24.0431 15.6216C25.2454 18.2489 24.6818 21.3925 22.6466 23.4259C20.6301 25.4335 17.6994 25.9563 15.207 24.7428C14.4493 24.3684 13.9358 24.0069 13.3534 23.4259C11.3182 21.3925 10.7546 18.2489 11.9569 15.6216C13.0591 13.2203 15.326 11.6904 17.9061 11.6065C18.0438 11.6065 18.3945 11.6323 18.6888 11.6646Z"/>
</mask>
<path d="M16.0274 2.03998L15.556 0.0963347L15.5327 0.10197L15.5096 0.10816L16.0274 2.03998ZM15.0818 2.60804L16.5065 4.01172L16.5119 4.0062L16.5173 4.00064L15.0818 2.60804ZM14.3867 4.89316L12.4016 4.64939L12.4007 4.65693L12.3998 4.66447L14.3867 4.89316ZM13.8795 6.50049L13.2886 4.58977L13.2443 4.60346L13.2007 4.61919L13.8795 6.50049ZM13.0027 6.86844L12.1788 5.04599L12.1664 5.05171L13.0027 6.86844ZM12.3577 7.16537L11.0751 8.69996L12.0454 9.51091L13.1941 8.98211L12.3577 7.16537ZM12.126 6.97172L13.4086 5.43713L13.3997 5.42971L13.3908 5.42238L12.126 6.97172ZM9.98434 5.33857L9.05625 7.11024L9.06808 7.11633L9.98434 5.33857ZM8.50646 5.24174L9.06235 7.16293L9.07872 7.1582L9.095 7.15318L8.50646 5.24174ZM6.68415 6.84262L5.25175 5.4468L5.24554 5.45323L6.68415 6.84262ZM5.13112 8.72107L7.05399 9.27112L7.0575 9.25886L7.06085 9.24656L5.13112 8.72107ZM5.22505 10.2445L3.43121 11.1289L3.43526 11.1371L3.43939 11.1453L5.22505 10.2445ZM6.93464 12.6135L8.61402 11.5274L8.55652 11.4385L8.48996 11.3562L6.93464 12.6135ZM6.7092 13.3559L4.87577 12.5568L4.87228 12.5648L4.86886 12.5728L6.7092 13.3559ZM6.35225 14.2596L4.45844 13.6166L4.44425 13.6583L4.43192 13.7007L6.35225 14.2596ZM4.78669 14.7889L5.04439 16.7722L5.04654 16.772L4.78669 14.7889ZM2.57613 15.499L3.97724 16.9262L3.99464 16.9091L4.01163 16.8916L2.57613 15.499ZM2.16908 16.0735L0.405769 15.1297L0.394054 15.1516L0.382887 15.1738L2.16908 16.0735ZM2 16.4092L0.213807 15.5094L0 15.9339V16.4092H2ZM2 20.5405H0V20.9701L0.176436 21.3618L2 20.5405ZM2.16282 20.9019L0.339254 21.7233L0.345695 21.7376L0.352359 21.7518L2.16282 20.9019ZM4.79295 22.2317L4.53525 24.215L4.54271 24.216L4.55017 24.2169L4.79295 22.2317ZM6.35225 22.7546L4.43192 23.3135L4.44425 23.3558L4.45844 23.3976L6.35225 22.7546ZM6.7092 23.6583L4.86886 24.4413L4.87228 24.4494L4.87577 24.4574L6.7092 23.6583ZM6.93464 24.4006L8.48996 25.658L8.55652 25.5757L8.61402 25.4868L6.93464 24.4006ZM5.22505 26.7697L3.43939 25.8689L3.43237 25.8828L3.42557 25.8968L5.22505 26.7697ZM5.13112 28.2931L7.05845 27.7589L7.05625 27.751L7.05399 27.743L5.13112 28.2931ZM6.59022 30.0812L5.14804 31.4669L5.14937 31.4682L6.59022 30.0812ZM9.98434 31.6821L10.9381 33.44L10.9496 33.4338L10.961 33.4274L9.98434 31.6821ZM12.2888 29.9133L13.5427 31.4715L13.5865 31.4362L13.6284 31.3985L12.2888 29.9133ZM12.8524 30.0812L11.9911 31.8862L11.9991 31.89L12.0072 31.8938L12.8524 30.0812ZM13.7605 30.4556L14.434 28.5724L14.4143 28.5654L14.3946 28.5588L13.7605 30.4556ZM14.2113 30.7396L16.1809 30.3922L16.1757 30.3623L16.1695 30.3325L14.2113 30.7396ZM14.3992 32.192L16.385 31.9544L16.3849 31.9533L14.3992 32.192ZM15.0881 34.419L13.642 35.8006L13.6472 35.8062L13.6526 35.8116L15.0881 34.419ZM15.6767 34.8322L14.784 36.6219L14.7986 36.6292L14.8133 36.6362L15.6767 34.8322ZM16.0274 35L15.164 36.804L15.5735 37H16.0274V35ZM19.9726 35V37H20.4265L20.836 36.804L19.9726 35ZM20.3233 34.8322L21.1867 36.6362L21.2014 36.6292L21.216 36.6219L20.3233 34.8322ZM20.9119 34.419L22.3474 35.8116L22.3527 35.8062L22.3579 35.8008L20.9119 34.419ZM21.6133 32.121L23.5985 32.3638L23.5994 32.3567L23.6002 32.3497L21.6133 32.121ZM23.229 30.0424L22.3127 28.2647L22.3018 28.2703L22.291 28.276L23.229 30.0424ZM24.7945 30.7719L23.5381 32.328L23.5441 32.3328L23.5501 32.3375L24.7945 30.7719ZM26.0157 31.6756L25.0708 33.4383L25.085 33.446L25.0994 33.4534L26.0157 31.6756ZM27.4935 31.7724L26.9285 29.8539L26.9202 29.8563L26.9119 29.8589L27.4935 31.7724ZM29.2282 30.2684L30.657 31.6679L30.6583 31.6665L29.2282 30.2684ZM29.8795 25.4786L31.4796 24.2788L31.4769 24.2753L29.8795 25.4786ZM29.0654 24.4006L27.386 25.4868L27.4435 25.5757L27.51 25.658L29.0654 24.4006ZM29.2908 23.6583L31.1242 24.4574L31.1277 24.4494L31.1311 24.4413L29.2908 23.6583ZM29.6477 22.7546L31.5416 23.3976L31.5557 23.3558L31.5681 23.3135L29.6477 22.7546ZM31.207 22.2317L31.4498 24.2169L31.4573 24.216L31.4647 24.215L31.207 22.2317ZM33.4301 21.5087L34.8553 22.9119L34.8605 22.9066L34.8656 22.9013L33.4301 21.5087ZM33.8372 20.9019L35.6592 21.7268L35.6607 21.7233L33.8372 20.9019ZM34 20.5405L35.8236 21.3618L36 20.9701V20.5405H34ZM34 16.4737H36V16.0441L35.8236 15.6524L34 16.4737ZM33.8372 16.1122L35.6607 15.2909L35.6543 15.2766L35.6476 15.2624L33.8372 16.1122ZM31.207 14.7825L31.4647 12.7991L31.4573 12.7982L31.4498 12.7972L31.207 14.7825ZM29.6477 14.2596L31.5681 13.7007L31.5557 13.6583L31.5416 13.6166L29.6477 14.2596ZM29.2908 13.3559L31.1311 12.5728L31.1277 12.5648L31.1242 12.5568L29.2908 13.3559ZM29.0654 12.6135L27.51 11.3562L27.4435 11.4385L27.386 11.5274L29.0654 12.6135ZM30.775 10.2445L32.5606 11.1453L32.5647 11.1371L32.5688 11.1289L30.775 10.2445ZM30.8689 8.72107L28.9392 9.24656L28.9425 9.25886L28.946 9.27112L30.8689 8.72107ZM29.3159 6.84262L30.7545 5.45322L30.7482 5.44681L29.3159 6.84262ZM27.4935 5.24174L26.9119 7.15529L26.9247 7.1592L26.9376 7.16293L27.4935 5.24174ZM26.0157 5.33857L25.0876 3.56693L25.0792 3.57134L25.0708 3.57583L26.0157 5.33857ZM24.7945 6.24229L23.5501 4.67662L23.5441 4.68137L23.5381 4.68617L24.7945 6.24229ZM23.229 6.97172L22.291 8.73812L22.3018 8.74387L22.3127 8.74949L23.229 6.97172ZM21.6133 4.89316L23.6002 4.66447L23.5994 4.65743L23.5985 4.6504L21.6133 4.89316ZM20.9119 2.59513L22.3579 1.21335L22.3527 1.20792L22.3474 1.20253L20.9119 2.59513ZM20.3233 2.182L21.216 0.392267L21.2014 0.384993L21.1867 0.377957L20.3233 2.182ZM19.9726 2.01416L20.836 0.210123L20.4331 0.0172784L19.9863 0.0142087L19.9726 2.01416ZM18.0939 2.00125L18.1077 0.00129795L18.1064 0.00129008L18.0939 2.00125ZM18.6888 11.6646L18.9201 9.67798L18.9069 9.67654L18.6888 11.6646ZM20.7867 12.2714L19.9121 14.0701L19.9138 14.0709L20.7867 12.2714ZM24.0431 15.6216L22.2235 16.4519L22.2244 16.4539L24.0431 15.6216ZM22.6466 23.4259L24.0577 24.8432L24.0601 24.8408L22.6466 23.4259ZM15.207 24.7428L14.3211 26.5359L14.3315 26.5409L15.207 24.7428ZM13.3534 23.4259L11.9399 24.8408L11.9409 24.8419L13.3534 23.4259ZM11.9569 15.6216L10.1393 14.7873L10.1383 14.7894L11.9569 15.6216ZM17.9061 11.6065V9.60652H17.8735L17.841 9.60758L17.9061 11.6065ZM15.5096 0.10816C14.8232 0.292147 14.1239 0.723072 13.6463 1.21544L16.5173 4.00064C16.5095 4.00871 16.5051 4.01257 16.5049 4.01272C16.5047 4.01296 16.507 4.01087 16.5122 4.0069C16.5232 3.99837 16.5392 3.9872 16.5579 3.97599C16.5668 3.97065 16.5749 3.96612 16.5819 3.96247C16.5889 3.9588 16.5936 3.95662 16.5956 3.95574C16.5977 3.95481 16.5953 3.95597 16.5882 3.95853C16.5813 3.96102 16.5669 3.96597 16.5451 3.9718L15.5096 0.10816ZM13.6571 1.20435C13.2491 1.61852 12.9403 2.08362 12.7378 2.75236C12.5801 3.27345 12.4918 3.91474 12.4016 4.64939L16.3718 5.13693C16.4179 4.76134 16.4553 4.48723 16.4902 4.27679C16.5257 4.06378 16.5518 3.95897 16.5663 3.91128C16.5769 3.87601 16.5704 3.90821 16.5354 3.96558C16.5012 4.02167 16.4751 4.04359 16.5065 4.01172L13.6571 1.20435ZM12.3998 4.66447C12.3588 5.02103 12.3139 5.34694 12.2771 5.58064C12.2584 5.69982 12.2441 5.78024 12.2356 5.8228C12.2308 5.84706 12.232 5.83797 12.2393 5.80952C12.2425 5.79714 12.2538 5.75366 12.2737 5.69495C12.2837 5.66542 12.3022 5.61307 12.3302 5.54872C12.3446 5.51563 12.3651 5.471 12.3922 5.41931C12.4183 5.36966 12.4594 5.29659 12.5174 5.21291L15.8052 7.49115C15.9823 7.23546 16.0582 6.99032 16.0623 6.97817C16.0872 6.90458 16.1041 6.84172 16.1133 6.80569C16.1328 6.72997 16.1482 6.65658 16.1591 6.60146C16.1822 6.48527 16.2058 6.34661 16.2286 6.20194C16.2748 5.90793 16.3269 5.52699 16.3736 5.12185L12.3998 4.66447ZM12.5174 5.21291C12.6212 5.06302 12.7244 4.95966 12.7873 4.90151C12.8547 4.83921 12.9138 4.79396 12.9543 4.76483C13.0335 4.7079 13.0967 4.67315 13.1282 4.65667C13.1917 4.62347 13.2424 4.60404 13.2886 4.58977L14.4703 8.41122C14.6417 8.35821 14.8177 8.28715 14.9829 8.20069C15.0653 8.15758 15.1735 8.0958 15.2889 8.01285C15.3734 7.95217 15.6041 7.78136 15.8052 7.49115L12.5174 5.21291ZM13.2007 4.61919C13.0061 4.68941 12.5586 4.87433 12.1788 5.04604L13.8267 8.69084C13.9832 8.62006 14.1522 8.54742 14.2968 8.48723C14.3686 8.45733 14.4314 8.43172 14.4809 8.412C14.5353 8.3903 14.5588 8.38159 14.5582 8.3818L13.2007 4.61919ZM12.1664 5.05171L11.5214 5.34864L13.1941 8.98211L13.8391 8.68517L12.1664 5.05171ZM13.6403 5.63079L13.4086 5.43713L10.8434 8.50631L11.0751 8.69996L13.6403 5.63079ZM13.3908 5.42238C12.8387 4.97173 12.3446 4.5794 11.9511 4.27929C11.6257 4.03106 11.2094 3.71995 10.9006 3.5608L9.06808 7.11633C8.99144 7.07683 8.98663 7.06548 9.11444 7.15561C9.2138 7.22568 9.35091 7.32676 9.52522 7.45971C9.87227 7.72443 10.33 8.08735 10.8613 8.52106L13.3908 5.42238ZM10.9124 3.56693C10.0033 3.09067 8.83584 3.04766 7.91792 3.33029L9.095 7.15318C9.08497 7.15627 9.08001 7.15721 9.08045 7.15712C9.08082 7.15705 9.08469 7.15632 9.09186 7.15558C9.10744 7.15398 9.12743 7.15348 9.14749 7.15484C9.15687 7.15548 9.1641 7.15638 9.16873 7.1571C9.17345 7.15783 9.17373 7.15811 9.16948 7.15703C9.16538 7.15599 9.15415 7.15296 9.13654 7.14644C9.11915 7.14 9.09161 7.12871 9.05627 7.1102L10.9124 3.56693ZM7.95056 3.32055C7.82966 3.35553 7.58759 3.42646 7.31198 3.57653C7.05022 3.71905 6.83882 3.88776 6.66611 4.03976C6.35699 4.31183 5.92003 4.76104 5.25176 5.44681L8.11653 8.23842C8.46944 7.87627 8.72802 7.61134 8.92732 7.41128C9.13161 7.20624 9.24331 7.1001 9.30884 7.04243C9.37175 6.98706 9.3306 7.03191 9.22481 7.08951C9.10517 7.15465 9.00478 7.17959 9.06235 7.16293L7.95056 3.32055ZM5.24554 5.45323C4.57995 6.1424 4.14459 6.59241 3.88128 6.91031C3.73371 7.08847 3.57366 7.30227 3.43976 7.56357C3.30003 7.83625 3.23436 8.07448 3.20138 8.19558L7.06085 9.24656C7.07797 9.18368 7.05692 9.27587 6.99957 9.38777C6.94806 9.4883 6.90817 9.5266 6.96177 9.46189C7.10081 9.29403 7.39187 8.98879 8.12276 8.232L5.24554 5.45323ZM3.20824 8.17101C2.94848 9.0791 2.98602 10.2259 3.43121 11.1289L7.01889 9.3601C7.03416 9.39107 7.04292 9.41401 7.0474 9.42683C7.04975 9.43353 7.05126 9.43846 7.05214 9.44149C7.05259 9.44303 7.05291 9.44417 7.0531 9.44491C7.0532 9.44528 7.05327 9.44555 7.05331 9.44574C7.05336 9.44592 7.05338 9.44601 7.05338 9.44601C7.05338 9.44601 7.05336 9.44593 7.05332 9.44576C7.05329 9.44559 7.05323 9.44534 7.05316 9.44501C7.05302 9.44435 7.05282 9.44338 7.05258 9.44212C7.05209 9.43956 7.05146 9.436 7.0508 9.43146C7.04944 9.42219 7.04809 9.41022 7.04718 9.39601C7.04528 9.36639 7.04582 9.33575 7.04845 9.30855C7.05114 9.28075 7.05487 9.26802 7.05399 9.27112L3.20824 8.17101ZM3.43939 11.1453C3.55484 11.3741 3.76295 11.6795 3.90407 11.8833C4.08168 12.1398 4.30083 12.4438 4.52305 12.7388L7.71804 10.3322C7.52696 10.0785 7.33906 9.81768 7.1926 9.60617C7.11912 9.50004 7.06092 9.41335 7.02029 9.35055C6.9646 9.2645 6.97766 9.27818 7.01071 9.34369L3.43939 11.1453ZM4.52305 12.7388C4.91143 13.2544 5.3193 13.7967 5.37931 13.8709L8.48996 11.3562C8.50741 11.3777 8.50477 11.375 8.44609 11.2976C8.40203 11.2395 8.34112 11.1589 8.26736 11.0611C8.12003 10.8659 7.92494 10.6069 7.71804 10.3322L4.52305 12.7388ZM5.25525 13.6997C5.02489 13.3435 4.9706 13.0079 4.9542 12.8485C4.93612 12.6727 4.94743 12.5362 4.95502 12.4685C4.96342 12.3936 4.97488 12.339 4.9809 12.3126C4.9874 12.284 4.99244 12.2671 4.99314 12.2648C4.99402 12.2619 4.98721 12.2844 4.96578 12.3399C4.94524 12.3931 4.91595 12.4646 4.87577 12.5568L8.54262 14.155C8.65063 13.9072 8.75349 13.6507 8.82447 13.4141C8.85806 13.3021 8.90671 13.1229 8.93011 12.9143C8.94191 12.809 8.95395 12.6408 8.9332 12.4392C8.91414 12.2539 8.85378 11.8981 8.61402 11.5274L5.25525 13.6997ZM4.86886 12.5728C4.70284 12.963 4.52492 13.4208 4.45844 13.6166L8.24606 14.9026C8.24542 14.9045 8.24756 14.8982 8.25374 14.8812C8.2595 14.8653 8.26721 14.8444 8.2769 14.8186C8.2963 14.7669 8.32138 14.7015 8.35058 14.627C8.40934 14.4771 8.4803 14.3016 8.54954 14.1389L4.86886 12.5728ZM4.43192 13.7007C4.44334 13.6615 4.45928 13.6166 4.48839 13.5575C4.50273 13.5284 4.53441 13.4669 4.58736 13.3886C4.61442 13.3486 4.65724 13.289 4.71689 13.2205C4.77206 13.1571 4.8732 13.0494 5.0224 12.9395L7.39404 16.1606C7.68058 15.9496 7.84527 15.7115 7.90051 15.6298C7.9787 15.5142 8.0366 15.4064 8.07677 15.3248C8.15755 15.1608 8.22358 14.9868 8.27258 14.8185L4.43192 13.7007ZM5.0224 12.9395C5.10726 12.877 5.18193 12.8326 5.23316 12.804C5.28639 12.7744 5.33252 12.752 5.36689 12.7362C5.43371 12.7055 5.48831 12.685 5.51931 12.6739C5.58086 12.6519 5.62682 12.6393 5.64038 12.6356C5.67128 12.6272 5.68265 12.6254 5.6594 12.6303C5.61913 12.6388 5.54152 12.6535 5.42448 12.6733C5.19556 12.712 4.87614 12.7601 4.52684 12.8059L5.04654 16.772C5.43619 16.7209 5.80561 16.6657 6.09176 16.6173C6.23225 16.5935 6.36874 16.5687 6.48365 16.5445C6.53799 16.533 6.61223 16.5166 6.68934 16.4956C6.72601 16.4857 6.79091 16.4673 6.86699 16.4401C6.88036 16.4353 7.13363 16.3523 7.39404 16.1606L5.0224 12.9395ZM4.52899 12.8056C3.81432 12.8984 3.17939 12.9909 2.66067 13.1576C1.98724 13.3741 1.53408 13.7008 1.14062 14.1064L4.01163 16.8916C4.04741 16.8547 4.02547 16.8827 3.96638 16.9209C3.90362 16.9614 3.86261 16.9728 3.88492 16.9657C3.92098 16.9541 4.01397 16.9288 4.21642 16.893C4.41632 16.8578 4.6795 16.8197 5.04439 16.7722L4.52899 12.8056ZM1.17502 14.0718C0.842772 14.398 0.555428 14.8501 0.405769 15.1297L3.93239 17.0173C3.9343 17.0137 3.94219 16.9995 3.95622 16.9768C3.9698 16.9549 3.98497 16.9319 3.9998 16.9107C4.0151 16.8888 4.02523 16.8758 4.02838 16.8719C4.02964 16.8703 4.02689 16.8738 4.0201 16.8815C4.01373 16.8886 3.99934 16.9045 3.97724 16.9262L1.17502 14.0718ZM0.382887 15.1738L0.213807 15.5094L3.78619 17.3089L3.95527 16.9732L0.382887 15.1738ZM0.176436 21.3618L0.339254 21.7233L3.98638 20.0806L3.82356 19.7191L0.176436 21.3618ZM0.352359 21.7518C0.511096 22.09 0.800822 22.564 1.1281 22.9013L3.9991 20.1161C4.02027 20.1379 4.03392 20.1538 4.03988 20.1608C4.04626 20.1684 4.04876 20.1717 4.04752 20.1701C4.04445 20.1661 4.03494 20.1531 4.02121 20.1322C4.00784 20.1118 3.99503 20.0908 3.98457 20.0725C3.97952 20.0636 3.97588 20.0569 3.97361 20.0525C3.97126 20.048 3.9713 20.0479 3.97328 20.0521L0.352359 21.7518ZM1.1281 22.9013C1.52492 23.3104 1.98126 23.6412 2.65896 23.8603C3.18285 24.0297 3.82159 24.1223 4.53525 24.215L5.05066 20.2484C4.68544 20.2009 4.42224 20.1629 4.222 20.1275C4.01941 20.0917 3.92625 20.0662 3.88976 20.0544C3.86723 20.0471 3.90592 20.0579 3.96523 20.0964C4.02027 20.1321 4.03845 20.1567 3.9991 20.1161L1.1281 22.9013ZM4.55017 24.2169C4.89388 24.2589 5.20761 24.3049 5.43167 24.3423C5.54616 24.3615 5.62167 24.3758 5.65983 24.3838C5.68201 24.3885 5.66979 24.3865 5.63799 24.3778C5.62395 24.374 5.57773 24.3612 5.51595 24.339C5.48482 24.3278 5.43035 24.3073 5.36376 24.2765C5.32952 24.2607 5.28371 24.2383 5.2309 24.2089C5.18001 24.1805 5.10623 24.1364 5.0224 24.0746L7.39404 20.8536C7.13586 20.6635 6.88539 20.5807 6.87049 20.5753C6.79427 20.5479 6.72924 20.5294 6.69227 20.5193C6.61461 20.498 6.54001 20.4815 6.48518 20.4699C6.36933 20.4455 6.23231 20.4207 6.09083 20.397C5.80296 20.3489 5.43097 20.2948 5.03574 20.2465L4.55017 24.2169ZM5.0224 24.0746C4.8732 23.9648 4.77206 23.857 4.71689 23.7936C4.65724 23.7251 4.61442 23.6656 4.58736 23.6255C4.53441 23.5473 4.50273 23.4858 4.48839 23.4567C4.45928 23.3976 4.44334 23.3527 4.43192 23.3135L8.27258 22.1957C8.22358 22.0274 8.15755 21.8534 8.07677 21.6893C8.0366 21.6078 7.9787 21.4999 7.90051 21.3843C7.84527 21.3027 7.68058 21.0645 7.39404 20.8536L5.0224 24.0746ZM4.45844 23.3976C4.52492 23.5934 4.70284 24.0512 4.86886 24.4413L8.54954 22.8753C8.4803 22.7125 8.40934 22.5371 8.35058 22.3872C8.32138 22.3126 8.2963 22.2472 8.2769 22.1956C8.26721 22.1697 8.2595 22.1489 8.25374 22.133C8.24756 22.116 8.24542 22.1097 8.24606 22.1115L4.45844 23.3976ZM4.87577 24.4574C4.91595 24.5496 4.94524 24.621 4.96578 24.6742C4.98721 24.7297 4.99402 24.7523 4.99314 24.7493C4.99244 24.747 4.9874 24.7301 4.9809 24.7016C4.97488 24.6752 4.96342 24.6206 4.95502 24.5456C4.94743 24.4779 4.93612 24.3414 4.9542 24.1657C4.9706 24.0063 5.02489 23.6707 5.25525 23.3145L8.61402 25.4868C8.85378 25.116 8.91414 24.7603 8.9332 24.575C8.95395 24.3733 8.94191 24.2051 8.93011 24.0999C8.90671 23.8912 8.85806 23.712 8.82447 23.6001C8.75349 23.3634 8.65063 23.107 8.54262 22.8592L4.87577 24.4574ZM5.37931 23.1433C5.3193 23.2175 4.91143 23.7597 4.52305 24.2753L7.71804 26.682C7.92494 26.4073 8.12003 26.1483 8.26736 25.953C8.34112 25.8553 8.40203 25.7747 8.44609 25.7166C8.50477 25.6392 8.50741 25.6364 8.48996 25.658L5.37931 23.1433ZM4.52305 24.2753C4.30083 24.5703 4.08168 24.8743 3.90407 25.1308C3.76295 25.3346 3.55484 25.64 3.43939 25.8689L7.01071 27.6705C6.97766 27.736 6.9646 27.7497 7.02029 27.6636C7.06092 27.6008 7.11911 27.5141 7.1926 27.408C7.33906 27.1965 7.52696 26.9357 7.71804 26.682L4.52305 24.2753ZM3.42557 25.8968C2.98961 26.7956 2.94684 27.9293 3.20824 28.8432L7.05399 27.743C7.05462 27.7453 7.05098 27.7326 7.04838 27.7058C7.04584 27.6795 7.04529 27.6499 7.04715 27.621C7.04904 27.5916 7.05271 27.5737 7.05364 27.5698C7.05396 27.5685 7.05283 27.5736 7.04901 27.5846C7.04526 27.5954 7.03775 27.6153 7.02453 27.6425L3.42557 25.8968ZM3.20378 28.8273C3.23772 28.9498 3.30267 29.1786 3.43591 29.441C3.56491 29.6949 3.71805 29.9041 3.86233 30.0809C4.11755 30.3938 4.53103 30.8247 5.14804 31.4669L8.03239 28.6955C7.70671 28.3565 7.46879 28.1081 7.28939 27.9165C7.10556 27.7202 7.01181 27.6137 6.96193 27.5526C6.916 27.4963 6.95368 27.5339 7.00225 27.6296C7.05506 27.7335 7.07461 27.8172 7.05845 27.7589L3.20378 28.8273ZM5.14937 31.4682C5.88566 32.2331 6.48709 32.8647 7.02737 33.2373C7.37201 33.475 7.74994 33.6566 8.19322 33.7535C8.57934 33.8378 8.93866 33.837 9.13894 33.837V29.837C8.92592 29.837 8.96274 29.8272 9.0469 29.8456C9.10376 29.8581 9.16415 29.8776 9.22051 29.9031C9.27334 29.927 9.30091 29.9463 9.29827 29.9444C9.27488 29.9283 9.18136 29.8568 8.95104 29.6327C8.72841 29.4161 8.44133 29.1203 8.03106 28.6941L5.14937 31.4682ZM9.13894 33.837C9.376 33.837 9.69324 33.834 10.0147 33.7745C10.4128 33.7009 10.7093 33.5641 10.9381 33.44L9.0306 29.9241C9.01183 29.9343 9.04145 29.917 9.09768 29.8952C9.12686 29.884 9.15944 29.8729 9.19442 29.863C9.22924 29.8532 9.26063 29.8462 9.28702 29.8413C9.33719 29.832 9.35988 29.8323 9.33154 29.8338C9.30113 29.8354 9.24479 29.837 9.13894 29.837V33.837ZM10.961 33.4274C11.2262 33.279 11.6266 32.9769 11.9762 32.7086C12.3881 32.3925 12.9224 31.9706 13.5427 31.4715L11.035 28.3552C10.4279 28.8437 9.91951 29.2448 9.54082 29.5355C9.35078 29.6813 9.20095 29.7936 9.09162 29.8727C8.9544 29.972 8.94736 29.9705 9.00769 29.9367L10.961 33.4274ZM13.6284 31.3985C13.0666 31.9052 12.4434 31.9023 12.2804 31.8966C12.0656 31.889 11.9179 31.8444 11.8932 31.837C11.8304 31.8184 11.844 31.816 11.9911 31.8862L13.7138 28.2762C13.5227 28.185 13.2796 28.0761 13.0321 28.0026C12.9149 27.9678 12.6929 27.9086 12.4206 27.899C12.2001 27.8913 11.5361 27.8989 10.9493 28.4282L13.6284 31.3985ZM12.0072 31.8938C12.3006 32.0306 12.7914 32.2404 13.1263 32.3524L14.3946 28.5588C14.2661 28.5158 13.9303 28.3771 13.6977 28.2686L12.0072 31.8938ZM13.087 32.3388C13.2009 32.3795 13.1386 32.3678 13.0174 32.2904C12.9283 32.2335 12.4083 31.8927 12.2532 31.1467L16.1695 30.3325C15.9956 29.4962 15.4036 29.0682 15.1704 28.9193C14.9052 28.7499 14.6269 28.6414 14.434 28.5724L13.087 32.3388ZM12.2418 31.087C12.2367 31.0583 12.2387 31.0672 12.2523 31.1665C12.2629 31.2435 12.2772 31.35 12.294 31.4785C12.3277 31.7354 12.3706 32.0737 12.4135 32.4307L16.3849 31.9533C16.2999 31.2461 16.2053 30.5301 16.1809 30.3922L12.2418 31.087ZM12.4134 32.4296C12.4983 33.1389 12.5849 33.767 12.7466 34.288C12.9514 34.9479 13.2594 35.4002 13.642 35.8006L16.5341 33.0374C16.4939 32.9953 16.5113 33.0078 16.5391 33.0531C16.5691 33.1021 16.5757 33.1308 16.5669 33.1025C16.5542 33.0616 16.5294 32.966 16.496 32.7671C16.4629 32.57 16.4278 32.3114 16.385 31.9544L12.4134 32.4296ZM13.6526 35.8116C13.9812 36.1504 14.4464 36.4535 14.784 36.6219L16.5694 33.0424C16.5751 33.0453 16.5764 33.0461 16.5731 33.0443C16.57 33.0425 16.5644 33.0394 16.5567 33.0347C16.5405 33.0249 16.5215 33.0126 16.5029 32.9996C16.4939 32.9933 16.4862 32.9878 16.48 32.9831C16.4738 32.9784 16.4702 32.9756 16.4693 32.9749C16.4682 32.974 16.4719 32.9769 16.4796 32.9838C16.4868 32.9903 16.5024 33.0046 16.5236 33.0264L13.6526 35.8116ZM14.8133 36.6362L15.164 36.804L16.8908 33.196L16.5401 33.0281L14.8133 36.6362ZM20.836 36.804L21.1867 36.6362L19.4599 33.0281L19.1092 33.196L20.836 36.804ZM21.216 36.6219C21.5536 36.4535 22.0188 36.1504 22.3474 35.8116L19.4764 33.0264C19.4976 33.0046 19.5132 32.9903 19.5204 32.9838C19.5281 32.9769 19.5318 32.974 19.5307 32.9749C19.5298 32.9756 19.5262 32.9784 19.52 32.9831C19.5138 32.9878 19.5061 32.9933 19.4971 32.9996C19.4785 33.0126 19.4595 33.0249 19.4433 33.0347C19.4356 33.0394 19.43 33.0425 19.4269 33.0443C19.4236 33.0461 19.4249 33.0453 19.4306 33.0424L21.216 36.6219ZM22.3579 35.8008C22.7459 35.3947 23.0552 34.9392 23.2601 34.2676C23.4199 33.7439 23.5082 33.102 23.5985 32.3638L19.6281 31.8782C19.582 32.2552 19.5447 32.5291 19.5098 32.7386C19.4745 32.9505 19.4484 33.0539 19.4342 33.1003C19.4241 33.1335 19.4301 33.1046 19.4613 33.0533C19.4902 33.0058 19.5088 32.9925 19.466 33.0373L22.3579 35.8008ZM23.6002 32.3497C23.6413 31.9924 23.686 31.6691 23.7226 31.441C23.7415 31.3235 23.755 31.2514 23.7618 31.2195C23.7661 31.1993 23.7619 31.2224 23.7487 31.2681C23.7428 31.2882 23.7244 31.3508 23.6914 31.4324C23.6749 31.4734 23.6441 31.5456 23.5968 31.6322C23.5724 31.6768 23.5377 31.7363 23.4915 31.8036C23.4467 31.8688 23.3775 31.9612 23.2805 32.0612L20.4095 29.276C20.1099 29.5848 19.988 29.9208 19.9829 29.9335C19.9442 30.0292 19.9196 30.1105 19.907 30.1537C19.8804 30.2454 19.8611 30.3317 19.8488 30.39C19.8222 30.5151 19.7967 30.6608 19.7733 30.8064C19.7254 31.1043 19.673 31.4879 19.6264 31.8923L23.6002 32.3497ZM23.2805 32.0612C23.1904 32.1541 23.111 32.2172 23.0714 32.2476C23.0263 32.2822 22.9889 32.3075 22.9659 32.3226C22.9208 32.3522 22.8881 32.3704 22.8789 32.3756C22.8585 32.3869 22.8573 32.3865 22.8829 32.3745C22.9305 32.3521 23.0072 32.3192 23.0893 32.2882L21.6778 28.5455C21.5032 28.6113 21.3294 28.6849 21.1813 28.7545C21.109 28.7885 21.0237 28.8305 20.9389 28.8775C20.8975 28.9005 20.8375 28.9349 20.7709 28.9786C20.7332 29.0034 20.5733 29.1072 20.4095 29.276L23.2805 32.0612ZM23.0893 32.2882C23.4032 32.1698 23.8667 31.9683 24.167 31.8088L22.291 28.276C22.1779 28.3361 21.8774 28.4702 21.6778 28.5455L23.0893 32.2882ZM24.1452 31.8202C24.1916 31.7963 24.2315 31.7748 24.2597 31.7594C24.2952 31.7402 24.2996 31.7377 24.3098 31.7322C24.3358 31.7184 24.2441 31.7707 24.1052 31.8164C23.9344 31.8727 23.6978 31.9192 23.4209 31.8969C23.1593 31.8757 22.9643 31.8012 22.8588 31.7523C22.7619 31.7074 22.7105 31.6699 22.7264 31.6809C22.7381 31.6889 22.7727 31.7137 22.8458 31.7706C22.9999 31.8907 23.2002 32.0552 23.5381 32.328L26.0509 29.2158C25.7532 28.9754 25.4949 28.7639 25.3047 28.6157C25.1484 28.4938 24.8654 28.2735 24.54 28.1228C24.3457 28.0328 24.0749 27.9366 23.7426 27.9098C23.3951 27.8818 23.0931 27.9384 22.8542 28.0171C22.6474 28.0852 22.4851 28.1721 22.4301 28.2014C22.3207 28.2596 22.3647 28.2379 22.3127 28.2647L24.1452 31.8202ZM23.5501 32.3375C23.8242 32.5555 24.1081 32.7742 24.3495 32.9533C24.5339 33.0901 24.8363 33.3126 25.0708 33.4383L26.9605 29.9129C27.0337 29.9521 27.0548 29.9713 26.9725 29.9142C26.9146 29.874 26.8337 29.8158 26.7331 29.7411C26.533 29.5926 26.2846 29.4014 26.039 29.2062L23.5501 32.3375ZM25.0994 33.4534C26.0055 33.9204 27.1516 33.9667 28.0752 33.686L26.9119 29.8589C26.9187 29.8568 26.9213 29.8564 26.9196 29.8567C26.9179 29.8571 26.9133 29.8579 26.9061 29.8586C26.8905 29.8602 26.8717 29.8606 26.8533 29.8594C26.8447 29.8588 26.8381 29.858 26.8339 29.8573C26.8296 29.8566 26.8293 29.8564 26.833 29.8573C26.8367 29.8582 26.8465 29.8609 26.862 29.8666C26.8773 29.8722 26.9012 29.882 26.9319 29.8978L25.0994 33.4534ZM28.0586 33.6909C28.1809 33.6549 28.4133 33.5848 28.6784 33.4418C28.9329 33.3044 29.1398 33.1429 29.3115 32.9941C29.6159 32.7302 30.0344 32.3035 30.657 31.6679L27.7994 28.8689C27.4706 29.2046 27.2296 29.4498 27.0437 29.6347C26.8531 29.8244 26.7503 29.9206 26.6916 29.9714C26.6371 30.0187 26.6777 29.9762 26.7786 29.9217C26.89 29.8616 26.9815 29.8383 26.9285 29.8539L28.0586 33.6909ZM30.6583 31.6665C31.4022 30.9056 32.0123 30.2879 32.3704 29.7362C32.5972 29.3867 32.7652 29.0117 32.8542 28.5788C32.9319 28.2008 32.9315 27.8478 32.9315 27.6411H28.9315C28.9315 27.8604 28.9225 27.8399 28.9362 27.7732C28.946 27.7257 28.9618 27.6732 28.983 27.6233C29.0029 27.5765 29.0186 27.5532 29.0151 27.5585C28.9968 27.5868 28.9255 27.6851 28.7087 27.9218C28.4985 28.1514 28.2114 28.4474 27.798 28.8703L30.6583 31.6665ZM32.9315 27.6411C32.9315 27.2093 32.9247 26.6197 32.5787 25.9105C32.3368 25.4146 31.9264 24.8747 31.4796 24.2788L28.2793 26.6785C28.5336 27.0176 28.704 27.2471 28.8271 27.4232C28.8866 27.5084 28.926 27.5682 28.9523 27.6107C28.9784 27.6528 28.9857 27.6683 28.9837 27.6643C28.9691 27.6345 28.943 27.5641 28.9312 27.487C28.9259 27.4524 28.9315 27.4573 28.9315 27.6411H32.9315ZM31.4769 24.2753C31.0886 23.7597 30.6807 23.2175 30.6207 23.1433L27.51 25.658C27.4926 25.6364 27.4952 25.6392 27.5539 25.7166C27.598 25.7747 27.6589 25.8553 27.7326 25.953C27.88 26.1483 28.0751 26.4073 28.282 26.682L31.4769 24.2753ZM30.7447 23.3145C30.9751 23.6707 31.0294 24.0063 31.0458 24.1657C31.0639 24.3414 31.0526 24.4779 31.045 24.5456C31.0366 24.6206 31.0251 24.6752 31.0191 24.7016C31.0126 24.7301 31.0076 24.747 31.0069 24.7493C31.006 24.7523 31.0128 24.7297 31.0342 24.6742C31.0548 24.621 31.084 24.5496 31.1242 24.4574L27.4574 22.8592C27.3494 23.107 27.2465 23.3634 27.1755 23.6001C27.1419 23.712 27.0933 23.8912 27.0699 24.0999C27.0581 24.2051 27.0461 24.3733 27.0668 24.575C27.0859 24.7603 27.1462 25.116 27.386 25.4868L30.7447 23.3145ZM31.1311 24.4413C31.2972 24.0512 31.4751 23.5934 31.5416 23.3976L27.7539 22.1115C27.7546 22.1097 27.7524 22.116 27.7463 22.133C27.7405 22.1489 27.7328 22.1697 27.7231 22.1956C27.7037 22.2472 27.6786 22.3126 27.6494 22.3872C27.5907 22.5371 27.5197 22.7125 27.4505 22.8753L31.1311 24.4413ZM31.5681 23.3135C31.5567 23.3527 31.5407 23.3976 31.5116 23.4567C31.4973 23.4858 31.4656 23.5473 31.4126 23.6255C31.3856 23.6656 31.3428 23.7251 31.2831 23.7936C31.2279 23.857 31.1268 23.9648 30.9776 24.0746L28.606 20.8536C28.3194 21.0645 28.1547 21.3027 28.0995 21.3843C28.0213 21.4999 27.9634 21.6078 27.9232 21.6894C27.8424 21.8534 27.7764 22.0274 27.7274 22.1957L31.5681 23.3135ZM30.9776 24.0746C30.8938 24.1364 30.82 24.1805 30.7691 24.2089C30.7163 24.2383 30.6705 24.2607 30.6362 24.2765C30.5696 24.3073 30.5152 24.3278 30.484 24.339C30.4223 24.3612 30.376 24.374 30.362 24.3778C30.3302 24.3865 30.318 24.3885 30.3402 24.3838C30.3783 24.3758 30.4538 24.3615 30.5683 24.3423C30.7924 24.3049 31.1061 24.2589 31.4498 24.2169L30.9643 20.2465C30.569 20.2948 30.197 20.3489 29.9092 20.397C29.7677 20.4207 29.6307 20.4455 29.5148 20.4699C29.46 20.4815 29.3854 20.498 29.3077 20.5193C29.2708 20.5294 29.2057 20.5479 29.1295 20.5753C29.1146 20.5807 28.8641 20.6635 28.606 20.8536L30.9776 24.0746ZM31.4647 24.215C32.1741 24.1229 32.8116 24.0318 33.3343 23.8624C34.0163 23.6414 34.4657 23.3076 34.8553 22.9119L32.005 20.1055C31.9559 20.1553 31.9695 20.1347 32.021 20.1012C32.0792 20.0633 32.1192 20.0514 32.1013 20.0572C32.0682 20.0679 31.9784 20.0927 31.777 20.1281C31.578 20.1631 31.3157 20.2008 30.9493 20.2484L31.4647 24.215ZM34.8656 22.9013C35.1679 22.5897 35.4826 22.1168 35.6592 21.7268L32.0152 20.0771C32.0222 20.0617 32.0266 20.0532 32.0272 20.052C32.028 20.0505 32.0268 20.0528 32.0234 20.0588C32.0161 20.0715 32.0047 20.09 31.9906 20.1108C31.984 20.1207 31.9776 20.1299 31.9718 20.1379C31.966 20.1459 31.9616 20.1516 31.9591 20.1549C31.9563 20.1584 31.957 20.1574 31.9613 20.1524C31.9651 20.148 31.9763 20.1351 31.9946 20.1161L34.8656 22.9013ZM35.6607 21.7233L35.8236 21.3618L32.1764 19.7191L32.0136 20.0806L35.6607 21.7233ZM35.8236 15.6524L35.6607 15.2909L32.0136 16.9336L32.1764 17.2951L35.8236 15.6524ZM35.6476 15.2624C35.4889 14.9242 35.1992 14.4502 34.8719 14.1128L32.0009 16.898C31.9797 16.8762 31.9661 16.8604 31.9601 16.8534C31.9537 16.8458 31.9512 16.8424 31.9525 16.8441C31.9555 16.8481 31.9651 16.861 31.9788 16.8819C31.9922 16.9023 32.005 16.9233 32.0154 16.9417C32.0205 16.9506 32.0241 16.9573 32.0264 16.9616C32.0287 16.9661 32.0287 16.9663 32.0267 16.9621L35.6476 15.2624ZM34.8719 14.1128C34.4751 13.7038 34.0187 13.373 33.341 13.1538C32.8171 12.9844 32.1784 12.8919 31.4647 12.7991L30.9493 16.7658C31.3146 16.8132 31.5778 16.8513 31.778 16.8867C31.9806 16.9225 32.0737 16.948 32.1102 16.9598C32.1328 16.9671 32.0941 16.9563 32.0348 16.9178C31.9797 16.8821 31.9615 16.8575 32.0009 16.898L34.8719 14.1128ZM31.4498 12.7972C31.1061 12.7552 30.7924 12.7093 30.5683 12.6718C30.4538 12.6527 30.3783 12.6384 30.3402 12.6303C30.318 12.6257 30.3302 12.6276 30.362 12.6363C30.376 12.6402 30.4223 12.6529 30.484 12.6752C30.5152 12.6864 30.5696 12.7069 30.6362 12.7376C30.6705 12.7535 30.7163 12.7758 30.7691 12.8053C30.82 12.8337 30.8938 12.8778 30.9776 12.9395L28.606 16.1606C28.8641 16.3507 29.1146 16.4335 29.1295 16.4388C29.2057 16.4663 29.2708 16.4848 29.3077 16.4949C29.3854 16.5161 29.46 16.5327 29.5148 16.5443C29.6307 16.5687 29.7677 16.5935 29.9092 16.6171C30.197 16.6652 30.569 16.7193 30.9643 16.7677L31.4498 12.7972ZM30.9776 12.9395C31.1268 13.0494 31.2279 13.1571 31.2831 13.2205C31.3428 13.289 31.3856 13.3486 31.4126 13.3886C31.4656 13.4669 31.4973 13.5284 31.5116 13.5575C31.5407 13.6166 31.5567 13.6615 31.5681 13.7007L27.7274 14.8185C27.7764 14.9868 27.8424 15.1608 27.9232 15.3248C27.9634 15.4064 28.0213 15.5142 28.0995 15.6298C28.1547 15.7115 28.3194 15.9496 28.606 16.1606L30.9776 12.9395ZM31.5416 13.6166C31.4751 13.4208 31.2972 12.963 31.1311 12.5728L27.4505 14.1389C27.5197 14.3016 27.5907 14.4771 27.6494 14.627C27.6786 14.7015 27.7037 14.7669 27.7231 14.8186C27.7328 14.8444 27.7405 14.8653 27.7463 14.8812C27.7524 14.8982 27.7546 14.9045 27.7539 14.9026L31.5416 13.6166ZM31.1242 12.5568C31.084 12.4646 31.0548 12.3931 31.0342 12.3399C31.0128 12.2844 31.006 12.2619 31.0069 12.2648C31.0076 12.2672 31.0126 12.284 31.0191 12.3126C31.0251 12.339 31.0366 12.3936 31.045 12.4685C31.0526 12.5362 31.0639 12.6728 31.0458 12.8485C31.0294 13.0079 30.9751 13.3435 30.7447 13.6997L27.386 11.5274C27.1462 11.8981 27.0859 12.2539 27.0668 12.4392C27.0461 12.6408 27.0581 12.809 27.0699 12.9143C27.0933 13.1229 27.1419 13.3021 27.1755 13.4141C27.2465 13.6507 27.3494 13.9072 27.4574 14.155L31.1242 12.5568ZM30.6207 13.8709C30.6807 13.7967 31.0886 13.2544 31.4769 12.7388L28.282 10.3322C28.0751 10.6069 27.88 10.8659 27.7326 11.0611C27.6589 11.1589 27.598 11.2395 27.5539 11.2976C27.4952 11.375 27.4926 11.3778 27.51 11.3562L30.6207 13.8709ZM31.4769 12.7388C31.6992 12.4438 31.9183 12.1398 32.0959 11.8833C32.2371 11.6795 32.4452 11.3741 32.5606 11.1453L28.9893 9.34369C29.0223 9.27818 29.0354 9.2645 28.9797 9.35055C28.9391 9.41335 28.8809 9.50004 28.8074 9.60617C28.6609 9.81768 28.473 10.0785 28.282 10.3322L31.4769 12.7388ZM32.5688 11.1289C33.014 10.2259 33.0515 9.0791 32.7918 8.17101L28.946 9.27112C28.9451 9.26802 28.9489 9.28075 28.9515 9.30855C28.9542 9.33575 28.9547 9.36639 28.9528 9.39601C28.9519 9.41022 28.9506 9.42219 28.9492 9.43146C28.9485 9.436 28.9479 9.43956 28.9474 9.44212C28.9472 9.44338 28.947 9.44435 28.9468 9.44501C28.9468 9.44534 28.9467 9.44559 28.9467 9.44576C28.9466 9.44593 28.9466 9.44601 28.9466 9.44601C28.9466 9.44601 28.9466 9.44592 28.9467 9.44574C28.9467 9.44555 28.9468 9.44528 28.9469 9.44491C28.9471 9.44417 28.9474 9.44303 28.9479 9.44149C28.9487 9.43846 28.9503 9.43353 28.9526 9.42683C28.9571 9.41401 28.9658 9.39107 28.9811 9.3601L32.5688 11.1289ZM32.7986 8.19558C32.7656 8.07448 32.7 7.83625 32.5602 7.56357C32.4263 7.30227 32.2663 7.08847 32.1187 6.91031C31.8554 6.59241 31.42 6.1424 30.7545 5.45323L27.8772 8.232C28.6081 8.98879 28.8992 9.29403 29.0382 9.46189C29.0918 9.5266 29.0519 9.4883 29.0004 9.38777C28.9431 9.27587 28.922 9.18368 28.9392 9.24656L32.7986 8.19558ZM30.7482 5.44681C30.08 4.76104 29.643 4.31183 29.3339 4.03976C29.1612 3.88776 28.9498 3.71905 28.688 3.57653C28.4124 3.42646 28.1703 3.35553 28.0494 3.32055L26.9376 7.16293C26.9952 7.17959 26.8948 7.15465 26.7752 7.08951C26.6694 7.03191 26.6282 6.98706 26.6912 7.04243C26.7567 7.1001 26.8684 7.20624 27.0727 7.41128C27.272 7.61134 27.5306 7.87627 27.8835 8.23842L30.7482 5.44681ZM28.0752 3.32818C27.1575 3.04926 25.9983 3.08985 25.0876 3.56693L26.9437 7.1102C26.9093 7.12822 26.8823 7.13933 26.865 7.14578C26.8475 7.15229 26.8361 7.1554 26.8315 7.15655C26.8269 7.15773 26.8267 7.15756 26.8308 7.15691C26.8349 7.15627 26.8416 7.15542 26.8506 7.15481C26.8696 7.15351 26.8895 7.15393 26.906 7.15563C26.9136 7.15641 26.9185 7.15726 26.9202 7.15761C26.9221 7.15798 26.9192 7.15752 26.9119 7.15529L28.0752 3.32818ZM25.0708 3.57583C24.8363 3.70154 24.5339 3.92405 24.3495 4.06085C24.1081 4.23996 23.8242 4.45869 23.5501 4.67662L26.039 7.80796C26.2846 7.61276 26.533 7.42158 26.7331 7.27309C26.8337 7.19841 26.9146 7.14018 26.9725 7.09997C27.0548 7.04284 27.0337 7.06208 26.9605 7.1013L25.0708 3.57583ZM23.5381 4.68617C23.2002 4.95898 22.9999 5.12347 22.8458 5.24357C22.7727 5.3005 22.7381 5.32528 22.7264 5.33328C22.7105 5.34422 22.7619 5.30672 22.8588 5.26183C22.9643 5.21298 23.1593 5.13843 23.4209 5.11731C23.6978 5.09497 23.9344 5.14146 24.1052 5.19772C24.2441 5.24345 24.3358 5.29577 24.3098 5.28193C24.2996 5.27648 24.2952 5.27398 24.2597 5.25473C24.2315 5.23936 24.1916 5.21788 24.1452 5.19395L22.3127 8.74949C22.3647 8.77631 22.3207 8.75453 22.4301 8.81275C22.4851 8.84203 22.6474 8.92895 22.8542 8.99707C23.0931 9.07572 23.3951 9.1324 23.7426 9.10435C24.0749 9.07754 24.3457 8.98141 24.54 8.8914C24.8654 8.74068 25.1484 8.52033 25.3047 8.39849C25.4949 8.2503 25.7532 8.03878 26.0509 7.79841L23.5381 4.68617ZM24.167 5.20532C23.8667 5.04586 23.4032 4.84437 23.0893 4.72597L21.6778 8.46867C21.8774 8.54393 22.1779 8.6781 22.291 8.73812L24.167 5.20532ZM23.0893 4.72597C23.0072 4.695 22.9305 4.66202 22.8829 4.63965C22.8574 4.62764 22.8585 4.62727 22.8789 4.63858C22.8882 4.64373 22.9209 4.66199 22.9659 4.69155C22.9889 4.70665 23.0263 4.73198 23.0714 4.76658C23.111 4.79693 23.1904 4.8601 23.2805 4.95297L20.4095 7.73817C20.5733 7.90698 20.7332 8.01074 20.7709 8.03552C20.8375 8.07923 20.8975 8.11367 20.9389 8.13668C21.0237 8.18369 21.109 8.22568 21.1813 8.25967C21.3294 8.32929 21.5032 8.40282 21.6778 8.46867L23.0893 4.72597ZM23.2805 4.95297C23.3775 5.05293 23.4467 5.14535 23.4915 5.21051C23.5377 5.27783 23.5724 5.33732 23.5968 5.38193C23.6441 5.46858 23.6749 5.54079 23.6914 5.58179C23.7244 5.66332 23.7428 5.72598 23.7487 5.7461C23.7619 5.79177 23.7661 5.81481 23.7618 5.79467C23.755 5.76278 23.7415 5.69063 23.7226 5.57317C23.686 5.34502 23.6413 5.02175 23.6002 4.66447L19.6264 5.12185C19.673 5.52628 19.7254 5.90985 19.7733 6.2078C19.7967 6.35338 19.8222 6.49909 19.8488 6.62415C19.8611 6.68247 19.8804 6.76876 19.907 6.86047C19.9196 6.90361 19.9442 6.985 19.9829 7.0807C19.988 7.09339 20.1099 7.42933 20.4095 7.73817L23.2805 4.95297ZM23.5985 4.6504C23.5082 3.91215 23.4199 3.27029 23.2601 2.74657C23.0552 2.07495 22.7459 1.61942 22.3579 1.21335L19.466 3.9769C19.5088 4.02166 19.4902 4.00834 19.4613 3.96084C19.4301 3.9096 19.4241 3.88063 19.4342 3.91384C19.4484 3.96031 19.4745 4.06362 19.5098 4.27551C19.5447 4.48511 19.582 4.75895 19.6281 5.13592L23.5985 4.6504ZM22.3474 1.20253C22.0188 0.86376 21.5536 0.56065 21.216 0.392267L19.4306 3.97172C19.4249 3.96887 19.4237 3.96808 19.4269 3.9699C19.43 3.97162 19.4356 3.9748 19.4433 3.9795C19.4595 3.98929 19.4785 4.00158 19.4971 4.01457C19.5061 4.02082 19.5138 4.02641 19.52 4.03103C19.5262 4.03572 19.5298 4.03856 19.5307 4.03929C19.5318 4.04018 19.5281 4.03724 19.5204 4.03034C19.5132 4.02386 19.4976 4.00958 19.4764 3.98772L22.3474 1.20253ZM21.1867 0.377957L20.836 0.210123L19.1092 3.8182L19.4599 3.98603L21.1867 0.377957ZM19.9863 0.0142087L18.1077 0.00129831L18.0802 4.0012L19.9589 4.01411L19.9863 0.0142087ZM18.1064 0.00129008C17.5754 -0.00202751 17.0681 0.00124741 16.6743 0.00888979C16.4788 0.0126843 16.3016 0.0177357 16.1594 0.0241785C16.0896 0.0273418 16.0154 0.0314015 15.9457 0.0369422C15.9296 0.0382251 15.7476 0.0498492 15.556 0.0963347L16.4988 3.98363C16.3882 4.01045 16.3041 4.01989 16.2969 4.02075C16.2732 4.02362 16.2599 4.02458 16.263 4.02434C16.2685 4.0239 16.2922 4.02226 16.3404 4.02008C16.4342 4.01583 16.5733 4.0116 16.7519 4.00814C17.1065 4.00125 17.5792 3.99807 18.0814 4.00121L18.1064 0.00129008ZM18.4576 13.6512C19.0147 13.716 19.4543 13.8474 19.9121 14.0701L21.6613 10.4727C20.7915 10.0498 19.916 9.79394 18.92 9.67803L18.4576 13.6512ZM19.9138 14.0709C20.9788 14.5875 21.7184 15.3449 22.2235 16.4519L25.8626 14.7914C24.9774 12.8515 23.5754 11.4013 21.6596 10.4719L19.9138 14.0709ZM22.2244 16.4539C23.0805 18.3245 22.6742 20.5712 21.233 22.0111L24.0601 24.8408C26.6894 22.2139 27.4103 18.1732 25.8617 14.7894L22.2244 16.4539ZM21.2355 22.0086C19.7978 23.4399 17.7786 23.7704 16.0826 22.9446L14.3315 26.5409C17.6202 28.1423 21.4624 27.427 24.0577 24.8432L21.2355 22.0086ZM16.093 22.9497C15.5183 22.6657 15.1854 22.4284 14.7659 22.01L11.9409 24.8419C12.6862 25.5853 13.3803 26.071 14.3211 26.5358L16.093 22.9497ZM14.767 22.0111C13.3258 20.5712 12.9195 18.3245 13.7755 16.4539L10.1383 14.7894C8.58973 18.1732 9.3106 22.2139 11.9399 24.8408L14.767 22.0111ZM13.7746 16.4559C14.57 14.7231 16.1711 13.664 17.9711 13.6055L17.841 9.60758C14.4809 9.71687 11.5482 11.7175 10.1393 14.7873L13.7746 16.4559ZM17.9061 13.6065C17.8897 13.6065 17.8978 13.6061 17.9423 13.6084C17.9808 13.6104 18.0313 13.6136 18.0911 13.618C18.2113 13.6269 18.349 13.6393 18.4708 13.6527L18.9069 9.67654C18.6004 9.64293 18.1591 9.60652 17.9061 9.60652V13.6065ZM0 16.4092V20.5405H4V16.4092H0ZM16.0274 37H19.9726V33H16.0274V37ZM36 20.5405V16.4737H32V20.5405H36Z" fill="white" mask="url(#path-1-outside-1_23_310)"/>
</svg>
