<svg width="37" height="33" viewBox="0 0 37 33" fill="none" xmlns="http://www.w3.org/2000/svg">
<path d="M35.1701 3.2849L34.384 2.82212C32.9387 1.96962 31.5441 2.23755 29.9973 3.65026C29.1859 4.38097 29.1859 4.38097 28.3238 3.9669M35.1701 3.2849L34.6705 3.30585L34.6819 3.57772M35.1701 3.2849L34.9164 3.71578L34.6819 3.57772M35.1701 3.2849L35.3222 6.91411C35.4236 9.05753 35.6772 11.5176 36.0069 12.9547L29.5713 29.5918M34.6819 3.57772L34.1304 3.25299L34.13 3.25279C33.4944 2.87789 32.9068 2.7671 32.3219 2.87799C31.8192 2.97328 31.2781 3.24003 30.6834 3.71934M34.6819 3.57772L34.8227 6.93505L34.8228 6.93774C34.9246 9.08851 35.1794 11.581 35.5185 13.0623C36.6259 18.2863 36.4179 22.2994 35.0124 24.8163L35.0116 24.818C34.6116 25.5405 34.08 26.2345 33.4512 26.8769M30.6834 3.71934C30.5615 3.81176 30.4453 3.91172 30.3343 4.01918C30.3334 4.02 30.3326 4.02081 30.3318 4.02162C30.3302 4.02314 30.3286 4.02466 30.3271 4.02618M30.6834 3.71934C30.5691 3.81144 30.4529 3.91137 30.3345 4.01945L30.3319 4.02182L30.3271 4.02618M30.6834 3.71934C30.8226 3.61373 30.9693 3.51798 31.1242 3.43214L31.1271 3.43058L31.1394 3.42388C31.4078 3.27735 31.6269 3.15779 31.8086 3.0709C31.9937 2.98241 32.1736 2.91096 32.3632 2.87981C32.7353 2.81867 33.0562 2.93496 33.3984 3.059C33.4199 3.06679 33.4415 3.07461 33.4631 3.08242L33.4696 3.08476L33.4696 3.0848C33.6146 3.13929 33.8204 3.21881 33.9919 3.39108C34.1706 3.57051 34.2638 3.79751 34.3249 4.05052C34.4396 4.52546 34.4918 5.3403 34.5788 6.76176C34.6788 8.39416 35.0306 11.0257 35.3556 12.6107L35.3558 12.6114C36.1202 16.3688 36.3688 19.2574 36.0065 21.6017C35.6748 23.7479 34.8337 25.4213 33.4512 26.8769M30.3271 4.02618L30.3165 4.03567C30.1269 4.2065 29.961 4.35584 29.816 4.46532C29.6651 4.57923 29.4887 4.68826 29.2725 4.72916C29.0481 4.77163 28.8468 4.72869 28.6699 4.66686C28.5092 4.6107 28.3258 4.52257 28.1287 4.42787L28.1132 4.42042M30.3271 4.02618C29.936 4.40662 29.609 4.88055 29.3229 5.44627L29.322 5.44811C29.0085 6.07444 28.805 6.48291 28.7512 7.09568C28.7021 7.65558 28.7784 8.38911 28.9125 9.67716L28.9167 9.71657C28.9167 9.7168 28.9167 9.71703 28.9167 9.71726C29.0687 11.2256 29.3495 13.1783 29.5886 14.0759C30.2107 16.6855 30.4803 20.4412 30.1866 22.5808L30.1866 22.5808L30.1858 22.5868C29.8957 24.9093 29.1353 26.4446 27.4784 28.2L27.4779 28.2005C27.1808 28.5162 26.9492 28.7652 26.7809 28.9587C26.6252 29.1377 26.4816 29.3153 26.4064 29.4765C26.37 29.5545 26.3075 29.7142 26.3506 29.9039C26.403 30.1338 26.57 30.2559 26.6935 30.3098C26.801 30.3568 26.9097 30.3697 26.9768 30.3754C27.0521 30.3818 27.1334 30.3828 27.2081 30.3828C27.2858 30.3828 27.3682 30.3766 27.4543 30.365M28.1132 4.42042C28.1151 4.42127 28.117 4.42212 28.1189 4.42298L28.3238 3.9669M28.1132 4.42042L28.1073 4.41761L28.3238 3.9669M28.1132 4.42042C27.3966 4.09941 26.8079 4.0141 26.2431 4.12557C25.666 4.23949 25.0519 4.57093 24.3117 5.2003L24.3074 5.20402L24.3073 5.20399L23.3691 5.98342L23.1061 6.20196M28.3238 3.9669C26.7517 3.26055 25.5346 3.50412 23.9878 4.8194L23.0496 5.59882L20.1843 2.84648M23.1061 6.20196L22.9649 6.06637L22.7754 5.88431L20.4579 3.65822C20.4574 3.65768 20.4568 3.65715 20.4563 3.65661C20.2757 3.47993 20.0942 3.30488 19.9142 3.1336L20.1843 2.84648M23.1061 6.20196L23.1532 6.24721L23.1124 6.50506L22.8088 8.42537M23.1061 6.20196L23.0255 6.26893L22.8928 6.14148L22.7033 5.95941L20.3851 3.73265L20.1083 4.01561M20.1843 2.84648L19.9112 3.1308L14.5298 0.313343C15.0369 0.0697721 15.7216 -0.0520106 16.3301 0.0210605C17.1669 0.118489 17.6994 0.5082 20.1843 2.84648ZM17.7825 8.00075C19.0197 9.16719 20.1721 10.234 21.1149 11.0872C21.1115 11.0847 21.1081 11.0822 21.1047 11.0797C20.4443 10.5927 19.3605 9.59269 17.7562 8.0273L17.7825 8.00075ZM17.7825 8.00075L18.1051 7.66918M17.7825 8.00075L22.1114 10.6164M22.8088 8.42537L14.7516 0.761503C15.1732 0.56051 15.7593 0.456111 16.2705 0.517498L16.2723 0.517705C16.5403 0.548906 16.7691 0.611875 17.1311 0.848817C17.133 0.850028 17.1348 0.851243 17.1367 0.852462C17.2011 0.894794 17.2698 0.942619 17.3436 0.996731C17.8621 1.37679 18.5928 2.03547 19.8398 3.20886C19.8404 3.20945 19.8411 3.21003 19.8417 3.21061L20.3825 3.73013L20.1083 4.01561M22.8088 8.42537L22.8082 8.42927L22.3143 8.35117M22.8088 8.42537C22.809 8.42406 22.8091 8.42276 22.8093 8.42145L22.3143 8.35117M20.1083 4.01561L22.6186 6.42696M20.1083 4.01561C18.739 2.67598 17.319 1.43377 16.9387 1.23891C16.0005 0.776128 15.3159 0.800484 14.7073 1.38505C14.048 2.01834 13.8452 2.91955 14.2255 3.60154C14.403 3.91819 16.1273 5.74497 18.1051 7.66918M22.6186 6.42696L18.1051 7.66918M22.6186 6.42696L22.3143 8.35117M22.6186 6.42696L22.1114 10.6164M18.1051 7.66918C21.3254 10.8112 22.3396 11.5663 22.1114 10.6164M22.1114 10.6164C22.0607 10.4215 22.1621 9.42288 22.3143 8.35117M0.526354 17.3568C0.451488 17.8556 0.528855 18.3892 0.792229 18.8735C0.792919 18.8748 0.793611 18.8761 0.794304 18.8773L0.526354 17.3568ZM0.526354 17.3568C0.518081 17.4615 0.51475 17.5692 0.51475 17.6799C0.51475 17.9423 0.542651 18.2072 0.706561 18.5337C0.856491 18.8324 1.11046 19.1629 1.50673 19.5993C2.30161 20.4746 3.7961 21.9096 6.57728 24.569C10.1422 27.9813 12.0438 29.7879 13.5976 30.7196C15.2195 31.6921 16.4807 31.7224 18.6376 31.7224C19.9645 31.7224 20.7335 31.7182 21.3974 31.5954C22.0776 31.4694 22.6333 31.222 23.5393 30.799C27.3364 29.0381 29.6258 26.3062 30.1623 22.6489C30.4797 20.5379 30.1858 17.1313 29.4225 13.343L29.4219 13.3399C29.1489 12.0289 28.8471 9.61797 28.7468 7.97991C28.7468 7.97981 28.7468 7.97971 28.7468 7.97961L28.2477 8.01017L0.526354 17.3568ZM33.4512 26.8769C33.3049 27.0264 33.1533 27.173 32.9969 27.3167C32.9967 27.3168 32.9966 27.3169 32.9965 27.3171C32.7422 27.5505 32.4752 27.7757 32.1973 27.9915M33.4512 26.8769C33.3077 27.0279 33.1584 27.1767 33.0032 27.3234L33.0028 27.3238C32.7711 27.5421 32.4975 27.7673 32.1973 27.9915M32.1973 27.9915C31.5524 28.4732 30.7847 28.9504 30.0466 29.3461C29.8873 29.4315 29.7284 29.5137 29.5713 29.5918M32.1973 27.9915C31.3974 28.6128 30.5072 29.1562 29.5713 29.5918M29.5713 29.5918C28.8844 29.9115 28.1729 30.1732 27.4543 30.365M27.4543 30.365C26.9726 30.4936 26.4878 30.5909 26.0051 30.6532M27.4543 30.365L26.0051 30.6532M26.0051 30.6532C24.9646 30.7784 23.371 31.0996 22.4389 31.3483L22.4362 31.349C20.0756 31.9935 18.7788 32.1033 16.9388 31.8244C15.3392 31.5742 14.4198 31.3406 13.1214 30.4587C11.7782 29.5464 10.0432 27.9487 6.86206 24.9173L6.86061 24.916C5.26605 23.4086 3.77986 21.9627 2.6681 20.8493C2.11191 20.2923 1.65147 19.8205 1.31874 19.4667C1.15207 19.2895 1.02016 19.1448 0.925264 19.0353C0.845059 18.9428 0.808403 18.8945 0.796657 18.8791L26.0051 30.6532ZM14.1966 1.18661C14.2196 1.16393 14.2426 1.14182 14.2657 1.12033C13.5563 1.869 13.2929 2.95571 13.7889 3.84508L13.7894 3.84603C13.8347 3.92684 13.906 4.0196 13.9734 4.10288C14.0478 4.19477 14.1427 4.30564 14.254 4.43141C14.4769 4.68342 14.7754 5.00632 15.1278 5.37703C15.5486 5.81962 16.0493 6.33352 16.5957 6.88124C15.3339 5.69431 14.1681 4.61055 13.2445 3.76547C12.6762 3.24545 12.1977 2.81418 11.8444 2.50438C11.6681 2.34981 11.5201 2.22303 11.4064 2.12979C11.3499 2.08339 11.2984 2.04252 11.2544 2.00966C11.2228 1.98616 11.1663 1.94453 11.1053 1.91373C11.0031 1.8608 10.8993 1.81652 10.7946 1.78048C11.1376 1.86112 11.4452 2.00784 11.6838 2.21838C11.8614 2.38303 12.0314 2.536 12.1875 2.63962C12.3382 2.73971 12.586 2.86953 12.882 2.7958C13.1597 2.72666 13.3274 2.51297 13.4259 2.36632C13.5338 2.20561 13.643 1.99126 13.7609 1.75283L13.7611 1.75233C13.8425 1.58734 13.9987 1.38209 14.1966 1.18661ZM7.79857 2.99264C7.95875 2.5511 8.37017 2.17618 8.92484 1.94625C8.16945 2.34894 7.6146 3.13801 7.6146 4.08869C7.6146 4.6219 7.82943 5.05353 8.40974 5.73201C8.98323 6.40251 9.99195 7.40135 11.7225 9.07586L11.7226 9.0759C12.2803 9.61538 12.7643 10.0895 13.1809 10.5053C12.9268 10.2634 12.663 10.0093 12.3945 9.74742C9.91396 7.31607 8.38385 5.85162 7.36088 4.99607C6.67931 4.42604 6.17468 4.08177 5.71959 3.91986C6.00104 3.94246 6.23536 3.95877 6.42728 3.96254C6.65176 3.96695 6.8744 3.9567 7.07241 3.88877C7.30312 3.80962 7.46282 3.66668 7.57735 3.48593C7.66913 3.34109 7.73502 3.16374 7.79136 3.01206C7.79332 3.0068 7.79526 3.00157 7.7972 2.99637L7.79721 2.99637L7.79857 2.99264ZM4.30227 3.87768C4.39551 3.84844 4.50541 3.8357 4.68403 3.83933C4.44002 3.87745 4.21073 3.94993 4.0014 4.0552C4.12826 3.95256 4.21214 3.90595 4.30227 3.87768ZM2.82571 5.29087C2.86213 5.18371 2.93063 5.08408 3.12422 4.88385C2.94321 5.19615 2.83653 5.55736 2.80601 5.94666C2.79659 5.83375 2.79068 5.73695 2.7888 5.65104C2.78471 5.46437 2.80111 5.36323 2.82571 5.29087ZM2.88839 6.81661C2.90665 6.8717 2.92839 6.92825 2.95424 6.98657C3.07931 7.26873 3.28867 7.56525 3.60529 7.934C4.23607 8.66864 5.40475 9.81495 7.53895 11.8772L7.54001 11.8782C8.36324 12.669 9.04898 13.3373 9.61244 13.9005C9.09677 13.4267 8.5335 12.9008 7.95173 12.3485L7.95169 12.3484C6.88133 11.3324 6.04861 10.5508 5.38381 9.96852C4.72423 9.3908 4.20341 8.98527 3.75968 8.74121C3.30422 8.4907 2.8808 8.38327 2.44236 8.47436C2.41942 8.47913 2.39668 8.4844 2.37412 8.49016C2.3922 8.47998 2.40987 8.46954 2.42706 8.45882C2.6078 8.34614 2.75989 8.18953 2.84472 7.95484C2.91799 7.75213 2.92614 7.52811 2.91985 7.31068C2.91578 7.16986 2.90418 7.00542 2.88839 6.81661ZM1.2263 9.16554C1.40393 8.97912 1.60678 8.82974 1.82658 8.72925C1.66714 8.82564 1.51611 8.93749 1.37005 9.05024C1.32059 9.0878 1.27261 9.12613 1.2263 9.16554ZM0.722923 11.9444C0.545133 11.6028 0.477954 11.1932 0.515204 10.773C0.514898 10.7937 0.51475 10.8146 0.51475 10.8356C0.51475 11.0878 0.544906 11.3426 0.69026 11.6487C0.825138 11.9328 1.04923 12.2397 1.38943 12.6291C2.06935 13.4072 3.32475 14.6369 5.61189 16.846C6.63795 17.8372 7.48108 18.6644 8.16032 19.3502C7.88791 19.097 7.6053 18.8319 7.3174 18.5591L7.31736 18.5591C6.41798 17.7073 5.70918 17.0463 5.13409 16.5524C4.56401 16.0628 4.09718 15.7125 3.68344 15.504C3.3408 15.3314 3.01427 15.2461 2.68372 15.267L2.79801 15.2213L3.49855 14.9409L2.96728 14.405L1.95302 13.382L1.95312 13.3819L1.94433 13.3735C1.66697 13.1071 1.38749 12.8037 1.15997 12.5327C0.92296 12.2504 0.771291 12.0373 0.722923 11.9444ZM27.0422 29.3767C27.0422 29.3767 27.0431 29.3769 27.0449 29.3772L27.0422 29.3767Z" stroke="white"/>
</svg>
