<svg width="37" height="37" viewBox="0 0 37 37" fill="none" xmlns="http://www.w3.org/2000/svg">
<mask id="path-1-inside-1_23_314" fill="white">
<path d="M6.29893 0.0764463C5.85255 0.215182 5.46568 0.462925 5.14826 0.799855C4.64236 1.32507 4.48365 1.74128 4.43405 2.63315L4.39437 3.43584L3.96783 3.49529C3.33298 3.59439 2.19223 4.18897 1.61689 4.71419C0.991957 5.29886 0.545576 5.97272 0.23807 6.82495L0 7.46908V33.0361L0.22815 33.6208C0.803485 35.1469 1.99383 36.2964 3.52145 36.8117C4.04718 36.9901 4.68204 37 18.5 37C32.318 37 32.9528 36.9901 33.4786 36.8117C35.0062 36.2964 36.1965 35.1469 36.7719 33.6208L37 33.0361V7.46908L36.7619 6.82495C36.137 5.13039 34.7483 3.87186 33.1413 3.53493L32.6156 3.41602L32.566 2.61333C32.5064 1.73137 32.3477 1.31516 31.8517 0.799855C30.6515 -0.478497 28.5684 -0.171296 27.7847 1.39444C27.5764 1.81064 27.5268 2.04848 27.5268 2.63315V3.35656H24.8485V2.63315C24.8485 2.04848 24.7989 1.81064 24.5906 1.39444C23.807 -0.171296 21.7239 -0.478497 20.5236 0.799855C20.0276 1.31516 19.859 1.74128 19.8094 2.5836L19.7598 3.35656H17.2402L17.1906 2.5836C17.141 1.74128 16.9724 1.31516 16.4764 0.799855C15.2761 -0.478497 13.193 -0.171296 12.4094 1.39444C12.2011 1.81064 12.1515 2.04848 12.1515 2.63315V3.35656H9.47319V2.63315C9.47319 1.41426 8.85818 0.502563 7.79678 0.135904C7.33056 -0.0226507 6.71555 -0.0424701 6.29893 0.0764463ZM7.48928 1.52326C8.05469 1.82055 8.08445 1.92956 8.08445 4.07006V6.03218L7.81662 6.32947C7.27105 6.93396 6.23941 6.79523 5.94182 6.08173C5.73351 5.57633 5.74343 2.46468 5.96166 2.01875C6.21957 1.45389 6.92386 1.23588 7.48928 1.52326ZM15.1769 1.53317C15.7424 1.80073 15.8217 2.11784 15.8217 4.05024C15.8217 5.41778 15.792 5.82407 15.663 6.09164C15.3257 6.80513 14.3437 6.93396 13.818 6.32947L13.5402 6.03218V4.08988C13.5402 2.91062 13.5799 2.07821 13.6493 1.95929C13.7882 1.70164 14.3239 1.37462 14.6115 1.37462C14.7405 1.37462 14.9984 1.44399 15.1769 1.53317ZM22.8646 1.52326C23.43 1.82055 23.4598 1.92956 23.4598 4.07006V6.03218L23.192 6.32947C22.6464 6.93396 21.6743 6.79522 21.3271 6.07182C21.1088 5.60606 21.1088 2.4845 21.337 2.01875C21.5949 1.45389 22.2992 1.23588 22.8646 1.52326ZM30.8399 1.7611L31.1475 2.0683L31.1772 3.90159C31.207 5.45741 31.1871 5.78444 31.0383 6.08173C30.7011 6.80513 29.729 6.93396 29.1933 6.32947L28.9156 6.03218V4.08988C28.9156 2.91062 28.9552 2.07821 29.0247 1.95929C29.3619 1.32507 30.2944 1.22597 30.8399 1.7611ZM12.1515 5.4376C12.1515 6.51775 12.5582 7.2808 13.3914 7.76638C14.304 8.3015 15.4845 8.19249 16.278 7.4889C16.903 6.93396 17.1311 6.43848 17.1906 5.50696L17.2402 4.74392H19.7598L19.8094 5.50696C19.8689 6.43848 20.0971 6.93396 20.722 7.4889C22.0214 8.62852 24.0153 8.13303 24.6997 6.49793C24.789 6.28983 24.8485 5.84389 24.8485 5.4376V4.74392H27.5268V5.45741C27.5268 6.93396 28.3898 7.94475 29.7686 8.08349C30.4928 8.16276 31.1078 7.96457 31.6534 7.4889C32.2684 6.95378 32.5064 6.43848 32.566 5.55651C32.6156 4.7241 32.6453 4.71419 33.4587 5.09076C34.2126 5.4376 34.9863 6.21055 35.3236 6.95378C35.5815 7.52854 35.6113 7.67719 35.641 9.07446L35.6807 10.5906H1.3193L1.35898 9.07446C1.38874 7.67719 1.4185 7.52854 1.67641 6.95378C2.01367 6.21055 2.7874 5.4376 3.54129 5.09076C4.35469 4.71419 4.38445 4.7241 4.43405 5.55651C4.49357 6.43848 4.73164 6.95378 5.34665 7.4889C6.5866 8.57897 8.54075 8.17267 9.23512 6.67631C9.41367 6.29974 9.47319 6.00245 9.47319 5.45741V4.74392H12.1515V5.4376ZM35.6113 32.8379L35.3038 33.4821C34.9169 34.3046 34.3019 34.919 33.4786 35.3054L32.8338 35.6126H4.16622L3.52145 35.3054C2.69812 34.919 2.08311 34.3046 1.69625 33.4821L1.38874 32.8379L1.33914 11.978H35.6609L35.6113 32.8379Z"/>
<path d="M6.05094 15.5851C5.66407 15.7536 5.35657 16.1004 5.15818 16.5563C5.03914 16.8437 5.00938 17.3193 5.00938 18.6869C5.00938 20.7184 5.1185 21.0949 5.83271 21.5706L6.23941 21.8382H10.2271L10.6437 21.5607C11.3777 21.085 11.4571 20.7877 11.4571 18.677C11.4571 17.6265 11.4075 16.7247 11.348 16.5662C11.219 16.2293 10.8024 15.7734 10.4453 15.5851C10.0783 15.3968 6.4874 15.3968 6.05094 15.5851ZM9.94933 16.9527C10.118 17.1211 10.118 20.213 9.94933 20.3814C9.80054 20.5301 6.87426 20.5499 6.58659 20.4012C6.40804 20.3021 6.39812 20.1733 6.39812 18.6869C6.39812 17.5572 6.4378 17.0319 6.51716 16.9527C6.68579 16.7842 9.7807 16.7842 9.94933 16.9527Z"/>
<path d="M16.1987 15.6446C15.415 16.0608 15.2265 16.6356 15.2265 18.667C15.2265 20.3121 15.3059 20.7382 15.6928 21.2039C16.1987 21.7985 16.5558 21.8877 18.5 21.8877C20.4442 21.8877 20.8013 21.7985 21.3072 21.2039C21.6941 20.7382 21.7735 20.3121 21.7735 18.667C21.7735 16.6256 21.585 16.0509 20.7815 15.6446C20.4343 15.4662 20.1962 15.4464 18.4802 15.4464C16.7839 15.4563 16.526 15.4761 16.1987 15.6446ZM20.2855 17.022C20.3351 17.131 20.3847 17.8644 20.3847 18.677C20.3847 19.8958 20.355 20.1634 20.2161 20.322C20.0772 20.4805 19.8788 20.5003 18.5198 20.5003C17.2204 20.5003 16.9525 20.4706 16.7938 20.3319C16.6351 20.1931 16.6153 20.0049 16.6153 18.6968C16.6153 17.8644 16.6649 17.131 16.7145 17.022C16.8137 16.8437 16.9426 16.8338 18.5 16.8338C20.0574 16.8338 20.1863 16.8437 20.2855 17.022Z"/>
<path d="M26.4853 15.6347C26.0885 15.8725 25.781 16.2293 25.652 16.5662C25.5925 16.7247 25.5429 17.6166 25.5429 18.677C25.5429 20.7877 25.6222 21.085 26.3563 21.5607L26.7729 21.8382H30.7705L31.1772 21.5508C31.8914 21.0553 31.9906 20.7184 31.9906 18.6571C31.9906 16.7347 31.9013 16.3482 31.3855 15.8725C30.9689 15.4959 30.6614 15.4464 28.6874 15.4464C27.0011 15.4464 26.7531 15.4662 26.4853 15.6347ZM30.4828 16.9527C30.5622 17.0319 30.6019 17.5572 30.6019 18.6869C30.6019 20.1733 30.592 20.3021 30.4134 20.4012C30.1257 20.5499 27.1995 20.5301 27.0507 20.3814C26.882 20.213 26.882 17.1211 27.0507 16.9527C27.2193 16.7842 30.3142 16.7842 30.4828 16.9527Z"/>
<path d="M6.02118 25.1678C5.76327 25.2966 5.4756 25.5543 5.32681 25.7822C5.05898 26.1786 5.05898 26.2182 5.02922 28.0416C4.98954 30.1821 5.07882 30.5488 5.75335 31.0641L6.1303 31.3515L7.97533 31.3812C8.98713 31.401 9.96917 31.3911 10.1477 31.3515C10.5445 31.2821 11.1496 30.7668 11.3182 30.3407C11.4174 30.1128 11.4571 29.4984 11.4571 28.1804C11.4571 26.5651 11.4373 26.2975 11.2686 25.9705C10.8223 25.0885 10.4255 24.9597 8.2134 24.9597C6.60643 24.9597 6.40804 24.9795 6.02118 25.1678ZM9.94933 26.466C10.118 26.6344 10.118 29.7263 9.94933 29.8947C9.7807 30.0632 6.68579 30.0632 6.51716 29.8947C6.4378 29.8155 6.39812 29.2902 6.39812 28.1804C6.39812 27.0705 6.4378 26.5453 6.51716 26.466C6.59651 26.3867 7.12225 26.3471 8.23324 26.3471C9.34423 26.3471 9.86997 26.3867 9.94933 26.466Z"/>
<path d="M16.3375 25.1282C15.9011 25.3363 15.4547 25.8615 15.3357 26.3173C15.1968 26.8128 15.1968 29.5578 15.3357 30.0632C15.4745 30.5587 15.7324 30.8956 16.1987 31.1731C16.5458 31.3911 16.6748 31.401 18.4901 31.401C20.2954 31.401 20.4343 31.3911 20.8013 31.183C21.0394 31.0443 21.3072 30.7767 21.456 30.5091C21.7139 30.083 21.7239 29.9938 21.7536 28.4182C21.7933 26.6047 21.7139 26.1291 21.3072 25.6435C20.8013 25.0489 20.4442 24.9597 18.4504 24.9597C17.0121 24.9597 16.6054 24.9993 16.3375 25.1282ZM20.226 26.5056C20.355 26.6344 20.3847 26.9218 20.3847 28.1407C20.3847 28.983 20.3351 29.7164 20.2855 29.8254C20.1863 30.0037 20.0574 30.0137 18.5 30.0137C16.9426 30.0137 16.8137 30.0037 16.7145 29.8254C16.6649 29.7164 16.6153 28.983 16.6153 28.1407C16.6153 26.9218 16.645 26.6344 16.774 26.5056C17.0021 26.2678 19.9979 26.2678 20.226 26.5056Z"/>
<path d="M26.634 25.1183C26.1877 25.3165 25.9595 25.5246 25.7314 25.9705C25.5627 26.2975 25.5429 26.5651 25.5429 28.1804C25.5429 29.4984 25.5826 30.1128 25.6818 30.3407C25.8504 30.7668 26.4555 31.2821 26.8523 31.3515C27.0308 31.3911 28.0129 31.401 29.0247 31.3812L30.8697 31.3515L31.2466 31.0641C31.9212 30.5488 32.0105 30.1821 31.9708 28.0416C31.941 26.2182 31.941 26.1786 31.6732 25.7822C31.197 25.0588 30.83 24.9597 28.7568 24.9597C27.3979 24.9696 26.9019 24.9993 26.634 25.1183ZM30.4828 26.466C30.6515 26.6344 30.6515 29.7263 30.4828 29.8947C30.3142 30.0632 27.2193 30.0632 27.0507 29.8947C26.882 29.7263 26.882 26.6344 27.0507 26.466C27.13 26.3867 27.6558 26.3471 28.7668 26.3471C29.8777 26.3471 30.4035 26.3867 30.4828 26.466Z"/>
</mask>
<path d="M6.29893 0.0764463C5.85255 0.215182 5.46568 0.462925 5.14826 0.799855C4.64236 1.32507 4.48365 1.74128 4.43405 2.63315L4.39437 3.43584L3.96783 3.49529C3.33298 3.59439 2.19223 4.18897 1.61689 4.71419C0.991957 5.29886 0.545576 5.97272 0.23807 6.82495L0 7.46908V33.0361L0.22815 33.6208C0.803485 35.1469 1.99383 36.2964 3.52145 36.8117C4.04718 36.9901 4.68204 37 18.5 37C32.318 37 32.9528 36.9901 33.4786 36.8117C35.0062 36.2964 36.1965 35.1469 36.7719 33.6208L37 33.0361V7.46908L36.7619 6.82495C36.137 5.13039 34.7483 3.87186 33.1413 3.53493L32.6156 3.41602L32.566 2.61333C32.5064 1.73137 32.3477 1.31516 31.8517 0.799855C30.6515 -0.478497 28.5684 -0.171296 27.7847 1.39444C27.5764 1.81064 27.5268 2.04848 27.5268 2.63315V3.35656H24.8485V2.63315C24.8485 2.04848 24.7989 1.81064 24.5906 1.39444C23.807 -0.171296 21.7239 -0.478497 20.5236 0.799855C20.0276 1.31516 19.859 1.74128 19.8094 2.5836L19.7598 3.35656H17.2402L17.1906 2.5836C17.141 1.74128 16.9724 1.31516 16.4764 0.799855C15.2761 -0.478497 13.193 -0.171296 12.4094 1.39444C12.2011 1.81064 12.1515 2.04848 12.1515 2.63315V3.35656H9.47319V2.63315C9.47319 1.41426 8.85818 0.502563 7.79678 0.135904C7.33056 -0.0226507 6.71555 -0.0424701 6.29893 0.0764463ZM7.48928 1.52326C8.05469 1.82055 8.08445 1.92956 8.08445 4.07006V6.03218L7.81662 6.32947C7.27105 6.93396 6.23941 6.79523 5.94182 6.08173C5.73351 5.57633 5.74343 2.46468 5.96166 2.01875C6.21957 1.45389 6.92386 1.23588 7.48928 1.52326ZM15.1769 1.53317C15.7424 1.80073 15.8217 2.11784 15.8217 4.05024C15.8217 5.41778 15.792 5.82407 15.663 6.09164C15.3257 6.80513 14.3437 6.93396 13.818 6.32947L13.5402 6.03218V4.08988C13.5402 2.91062 13.5799 2.07821 13.6493 1.95929C13.7882 1.70164 14.3239 1.37462 14.6115 1.37462C14.7405 1.37462 14.9984 1.44399 15.1769 1.53317ZM22.8646 1.52326C23.43 1.82055 23.4598 1.92956 23.4598 4.07006V6.03218L23.192 6.32947C22.6464 6.93396 21.6743 6.79522 21.3271 6.07182C21.1088 5.60606 21.1088 2.4845 21.337 2.01875C21.5949 1.45389 22.2992 1.23588 22.8646 1.52326ZM30.8399 1.7611L31.1475 2.0683L31.1772 3.90159C31.207 5.45741 31.1871 5.78444 31.0383 6.08173C30.7011 6.80513 29.729 6.93396 29.1933 6.32947L28.9156 6.03218V4.08988C28.9156 2.91062 28.9552 2.07821 29.0247 1.95929C29.3619 1.32507 30.2944 1.22597 30.8399 1.7611ZM12.1515 5.4376C12.1515 6.51775 12.5582 7.2808 13.3914 7.76638C14.304 8.3015 15.4845 8.19249 16.278 7.4889C16.903 6.93396 17.1311 6.43848 17.1906 5.50696L17.2402 4.74392H19.7598L19.8094 5.50696C19.8689 6.43848 20.0971 6.93396 20.722 7.4889C22.0214 8.62852 24.0153 8.13303 24.6997 6.49793C24.789 6.28983 24.8485 5.84389 24.8485 5.4376V4.74392H27.5268V5.45741C27.5268 6.93396 28.3898 7.94475 29.7686 8.08349C30.4928 8.16276 31.1078 7.96457 31.6534 7.4889C32.2684 6.95378 32.5064 6.43848 32.566 5.55651C32.6156 4.7241 32.6453 4.71419 33.4587 5.09076C34.2126 5.4376 34.9863 6.21055 35.3236 6.95378C35.5815 7.52854 35.6113 7.67719 35.641 9.07446L35.6807 10.5906H1.3193L1.35898 9.07446C1.38874 7.67719 1.4185 7.52854 1.67641 6.95378C2.01367 6.21055 2.7874 5.4376 3.54129 5.09076C4.35469 4.71419 4.38445 4.7241 4.43405 5.55651C4.49357 6.43848 4.73164 6.95378 5.34665 7.4889C6.5866 8.57897 8.54075 8.17267 9.23512 6.67631C9.41367 6.29974 9.47319 6.00245 9.47319 5.45741V4.74392H12.1515V5.4376ZM35.6113 32.8379L35.3038 33.4821C34.9169 34.3046 34.3019 34.919 33.4786 35.3054L32.8338 35.6126H4.16622L3.52145 35.3054C2.69812 34.919 2.08311 34.3046 1.69625 33.4821L1.38874 32.8379L1.33914 11.978H35.6609L35.6113 32.8379Z" fill="white"/>
<path d="M6.05094 15.5851C5.66407 15.7536 5.35657 16.1004 5.15818 16.5563C5.03914 16.8437 5.00938 17.3193 5.00938 18.6869C5.00938 20.7184 5.1185 21.0949 5.83271 21.5706L6.23941 21.8382H10.2271L10.6437 21.5607C11.3777 21.085 11.4571 20.7877 11.4571 18.677C11.4571 17.6265 11.4075 16.7247 11.348 16.5662C11.219 16.2293 10.8024 15.7734 10.4453 15.5851C10.0783 15.3968 6.4874 15.3968 6.05094 15.5851ZM9.94933 16.9527C10.118 17.1211 10.118 20.213 9.94933 20.3814C9.80054 20.5301 6.87426 20.5499 6.58659 20.4012C6.40804 20.3021 6.39812 20.1733 6.39812 18.6869C6.39812 17.5572 6.4378 17.0319 6.51716 16.9527C6.68579 16.7842 9.7807 16.7842 9.94933 16.9527Z" fill="white"/>
<path d="M16.1987 15.6446C15.415 16.0608 15.2265 16.6356 15.2265 18.667C15.2265 20.3121 15.3059 20.7382 15.6928 21.2039C16.1987 21.7985 16.5558 21.8877 18.5 21.8877C20.4442 21.8877 20.8013 21.7985 21.3072 21.2039C21.6941 20.7382 21.7735 20.3121 21.7735 18.667C21.7735 16.6256 21.585 16.0509 20.7815 15.6446C20.4343 15.4662 20.1962 15.4464 18.4802 15.4464C16.7839 15.4563 16.526 15.4761 16.1987 15.6446ZM20.2855 17.022C20.3351 17.131 20.3847 17.8644 20.3847 18.677C20.3847 19.8958 20.355 20.1634 20.2161 20.322C20.0772 20.4805 19.8788 20.5003 18.5198 20.5003C17.2204 20.5003 16.9525 20.4706 16.7938 20.3319C16.6351 20.1931 16.6153 20.0049 16.6153 18.6968C16.6153 17.8644 16.6649 17.131 16.7145 17.022C16.8137 16.8437 16.9426 16.8338 18.5 16.8338C20.0574 16.8338 20.1863 16.8437 20.2855 17.022Z" fill="white"/>
<path d="M26.4853 15.6347C26.0885 15.8725 25.781 16.2293 25.652 16.5662C25.5925 16.7247 25.5429 17.6166 25.5429 18.677C25.5429 20.7877 25.6222 21.085 26.3563 21.5607L26.7729 21.8382H30.7705L31.1772 21.5508C31.8914 21.0553 31.9906 20.7184 31.9906 18.6571C31.9906 16.7347 31.9013 16.3482 31.3855 15.8725C30.9689 15.4959 30.6614 15.4464 28.6874 15.4464C27.0011 15.4464 26.7531 15.4662 26.4853 15.6347ZM30.4828 16.9527C30.5622 17.0319 30.6019 17.5572 30.6019 18.6869C30.6019 20.1733 30.592 20.3021 30.4134 20.4012C30.1257 20.5499 27.1995 20.5301 27.0507 20.3814C26.882 20.213 26.882 17.1211 27.0507 16.9527C27.2193 16.7842 30.3142 16.7842 30.4828 16.9527Z" fill="white"/>
<path d="M6.02118 25.1678C5.76327 25.2966 5.4756 25.5543 5.32681 25.7822C5.05898 26.1786 5.05898 26.2182 5.02922 28.0416C4.98954 30.1821 5.07882 30.5488 5.75335 31.0641L6.1303 31.3515L7.97533 31.3812C8.98713 31.401 9.96917 31.3911 10.1477 31.3515C10.5445 31.2821 11.1496 30.7668 11.3182 30.3407C11.4174 30.1128 11.4571 29.4984 11.4571 28.1804C11.4571 26.5651 11.4373 26.2975 11.2686 25.9705C10.8223 25.0885 10.4255 24.9597 8.2134 24.9597C6.60643 24.9597 6.40804 24.9795 6.02118 25.1678ZM9.94933 26.466C10.118 26.6344 10.118 29.7263 9.94933 29.8947C9.7807 30.0632 6.68579 30.0632 6.51716 29.8947C6.4378 29.8155 6.39812 29.2902 6.39812 28.1804C6.39812 27.0705 6.4378 26.5453 6.51716 26.466C6.59651 26.3867 7.12225 26.3471 8.23324 26.3471C9.34423 26.3471 9.86997 26.3867 9.94933 26.466Z" fill="white"/>
<path d="M16.3375 25.1282C15.9011 25.3363 15.4547 25.8615 15.3357 26.3173C15.1968 26.8128 15.1968 29.5578 15.3357 30.0632C15.4745 30.5587 15.7324 30.8956 16.1987 31.1731C16.5458 31.3911 16.6748 31.401 18.4901 31.401C20.2954 31.401 20.4343 31.3911 20.8013 31.183C21.0394 31.0443 21.3072 30.7767 21.456 30.5091C21.7139 30.083 21.7239 29.9938 21.7536 28.4182C21.7933 26.6047 21.7139 26.1291 21.3072 25.6435C20.8013 25.0489 20.4442 24.9597 18.4504 24.9597C17.0121 24.9597 16.6054 24.9993 16.3375 25.1282ZM20.226 26.5056C20.355 26.6344 20.3847 26.9218 20.3847 28.1407C20.3847 28.983 20.3351 29.7164 20.2855 29.8254C20.1863 30.0037 20.0574 30.0137 18.5 30.0137C16.9426 30.0137 16.8137 30.0037 16.7145 29.8254C16.6649 29.7164 16.6153 28.983 16.6153 28.1407C16.6153 26.9218 16.645 26.6344 16.774 26.5056C17.0021 26.2678 19.9979 26.2678 20.226 26.5056Z" fill="white"/>
<path d="M26.634 25.1183C26.1877 25.3165 25.9595 25.5246 25.7314 25.9705C25.5627 26.2975 25.5429 26.5651 25.5429 28.1804C25.5429 29.4984 25.5826 30.1128 25.6818 30.3407C25.8504 30.7668 26.4555 31.2821 26.8523 31.3515C27.0308 31.3911 28.0129 31.401 29.0247 31.3812L30.8697 31.3515L31.2466 31.0641C31.9212 30.5488 32.0105 30.1821 31.9708 28.0416C31.941 26.2182 31.941 26.1786 31.6732 25.7822C31.197 25.0588 30.83 24.9597 28.7568 24.9597C27.3979 24.9696 26.9019 24.9993 26.634 25.1183ZM30.4828 26.466C30.6515 26.6344 30.6515 29.7263 30.4828 29.8947C30.3142 30.0632 27.2193 30.0632 27.0507 29.8947C26.882 29.7263 26.882 26.6344 27.0507 26.466C27.13 26.3867 27.6558 26.3471 28.7668 26.3471C29.8777 26.3471 30.4035 26.3867 30.4828 26.466Z" fill="white"/>
<path d="M6.29893 0.0764463C5.85255 0.215182 5.46568 0.462925 5.14826 0.799855C4.64236 1.32507 4.48365 1.74128 4.43405 2.63315L4.39437 3.43584L3.96783 3.49529C3.33298 3.59439 2.19223 4.18897 1.61689 4.71419C0.991957 5.29886 0.545576 5.97272 0.23807 6.82495L0 7.46908V33.0361L0.22815 33.6208C0.803485 35.1469 1.99383 36.2964 3.52145 36.8117C4.04718 36.9901 4.68204 37 18.5 37C32.318 37 32.9528 36.9901 33.4786 36.8117C35.0062 36.2964 36.1965 35.1469 36.7719 33.6208L37 33.0361V7.46908L36.7619 6.82495C36.137 5.13039 34.7483 3.87186 33.1413 3.53493L32.6156 3.41602L32.566 2.61333C32.5064 1.73137 32.3477 1.31516 31.8517 0.799855C30.6515 -0.478497 28.5684 -0.171296 27.7847 1.39444C27.5764 1.81064 27.5268 2.04848 27.5268 2.63315V3.35656H24.8485V2.63315C24.8485 2.04848 24.7989 1.81064 24.5906 1.39444C23.807 -0.171296 21.7239 -0.478497 20.5236 0.799855C20.0276 1.31516 19.859 1.74128 19.8094 2.5836L19.7598 3.35656H17.2402L17.1906 2.5836C17.141 1.74128 16.9724 1.31516 16.4764 0.799855C15.2761 -0.478497 13.193 -0.171296 12.4094 1.39444C12.2011 1.81064 12.1515 2.04848 12.1515 2.63315V3.35656H9.47319V2.63315C9.47319 1.41426 8.85818 0.502563 7.79678 0.135904C7.33056 -0.0226507 6.71555 -0.0424701 6.29893 0.0764463ZM7.48928 1.52326C8.05469 1.82055 8.08445 1.92956 8.08445 4.07006V6.03218L7.81662 6.32947C7.27105 6.93396 6.23941 6.79523 5.94182 6.08173C5.73351 5.57633 5.74343 2.46468 5.96166 2.01875C6.21957 1.45389 6.92386 1.23588 7.48928 1.52326ZM15.1769 1.53317C15.7424 1.80073 15.8217 2.11784 15.8217 4.05024C15.8217 5.41778 15.792 5.82407 15.663 6.09164C15.3257 6.80513 14.3437 6.93396 13.818 6.32947L13.5402 6.03218V4.08988C13.5402 2.91062 13.5799 2.07821 13.6493 1.95929C13.7882 1.70164 14.3239 1.37462 14.6115 1.37462C14.7405 1.37462 14.9984 1.44399 15.1769 1.53317ZM22.8646 1.52326C23.43 1.82055 23.4598 1.92956 23.4598 4.07006V6.03218L23.192 6.32947C22.6464 6.93396 21.6743 6.79522 21.3271 6.07182C21.1088 5.60606 21.1088 2.4845 21.337 2.01875C21.5949 1.45389 22.2992 1.23588 22.8646 1.52326ZM30.8399 1.7611L31.1475 2.0683L31.1772 3.90159C31.207 5.45741 31.1871 5.78444 31.0383 6.08173C30.7011 6.80513 29.729 6.93396 29.1933 6.32947L28.9156 6.03218V4.08988C28.9156 2.91062 28.9552 2.07821 29.0247 1.95929C29.3619 1.32507 30.2944 1.22597 30.8399 1.7611ZM12.1515 5.4376C12.1515 6.51775 12.5582 7.2808 13.3914 7.76638C14.304 8.3015 15.4845 8.19249 16.278 7.4889C16.903 6.93396 17.1311 6.43848 17.1906 5.50696L17.2402 4.74392H19.7598L19.8094 5.50696C19.8689 6.43848 20.0971 6.93396 20.722 7.4889C22.0214 8.62852 24.0153 8.13303 24.6997 6.49793C24.789 6.28983 24.8485 5.84389 24.8485 5.4376V4.74392H27.5268V5.45741C27.5268 6.93396 28.3898 7.94475 29.7686 8.08349C30.4928 8.16276 31.1078 7.96457 31.6534 7.4889C32.2684 6.95378 32.5064 6.43848 32.566 5.55651C32.6156 4.7241 32.6453 4.71419 33.4587 5.09076C34.2126 5.4376 34.9863 6.21055 35.3236 6.95378C35.5815 7.52854 35.6113 7.67719 35.641 9.07446L35.6807 10.5906H1.3193L1.35898 9.07446C1.38874 7.67719 1.4185 7.52854 1.67641 6.95378C2.01367 6.21055 2.7874 5.4376 3.54129 5.09076C4.35469 4.71419 4.38445 4.7241 4.43405 5.55651C4.49357 6.43848 4.73164 6.95378 5.34665 7.4889C6.5866 8.57897 8.54075 8.17267 9.23512 6.67631C9.41367 6.29974 9.47319 6.00245 9.47319 5.45741V4.74392H12.1515V5.4376ZM35.6113 32.8379L35.3038 33.4821C34.9169 34.3046 34.3019 34.919 33.4786 35.3054L32.8338 35.6126H4.16622L3.52145 35.3054C2.69812 34.919 2.08311 34.3046 1.69625 33.4821L1.38874 32.8379L1.33914 11.978H35.6609L35.6113 32.8379Z" stroke="white" stroke-width="4" mask="url(#path-1-inside-1_23_314)"/>
<path d="M6.05094 15.5851C5.66407 15.7536 5.35657 16.1004 5.15818 16.5563C5.03914 16.8437 5.00938 17.3193 5.00938 18.6869C5.00938 20.7184 5.1185 21.0949 5.83271 21.5706L6.23941 21.8382H10.2271L10.6437 21.5607C11.3777 21.085 11.4571 20.7877 11.4571 18.677C11.4571 17.6265 11.4075 16.7247 11.348 16.5662C11.219 16.2293 10.8024 15.7734 10.4453 15.5851C10.0783 15.3968 6.4874 15.3968 6.05094 15.5851ZM9.94933 16.9527C10.118 17.1211 10.118 20.213 9.94933 20.3814C9.80054 20.5301 6.87426 20.5499 6.58659 20.4012C6.40804 20.3021 6.39812 20.1733 6.39812 18.6869C6.39812 17.5572 6.4378 17.0319 6.51716 16.9527C6.68579 16.7842 9.7807 16.7842 9.94933 16.9527Z" stroke="white" stroke-width="4" mask="url(#path-1-inside-1_23_314)"/>
<path d="M16.1987 15.6446C15.415 16.0608 15.2265 16.6356 15.2265 18.667C15.2265 20.3121 15.3059 20.7382 15.6928 21.2039C16.1987 21.7985 16.5558 21.8877 18.5 21.8877C20.4442 21.8877 20.8013 21.7985 21.3072 21.2039C21.6941 20.7382 21.7735 20.3121 21.7735 18.667C21.7735 16.6256 21.585 16.0509 20.7815 15.6446C20.4343 15.4662 20.1962 15.4464 18.4802 15.4464C16.7839 15.4563 16.526 15.4761 16.1987 15.6446ZM20.2855 17.022C20.3351 17.131 20.3847 17.8644 20.3847 18.677C20.3847 19.8958 20.355 20.1634 20.2161 20.322C20.0772 20.4805 19.8788 20.5003 18.5198 20.5003C17.2204 20.5003 16.9525 20.4706 16.7938 20.3319C16.6351 20.1931 16.6153 20.0049 16.6153 18.6968C16.6153 17.8644 16.6649 17.131 16.7145 17.022C16.8137 16.8437 16.9426 16.8338 18.5 16.8338C20.0574 16.8338 20.1863 16.8437 20.2855 17.022Z" stroke="white" stroke-width="4" mask="url(#path-1-inside-1_23_314)"/>
<path d="M26.4853 15.6347C26.0885 15.8725 25.781 16.2293 25.652 16.5662C25.5925 16.7247 25.5429 17.6166 25.5429 18.677C25.5429 20.7877 25.6222 21.085 26.3563 21.5607L26.7729 21.8382H30.7705L31.1772 21.5508C31.8914 21.0553 31.9906 20.7184 31.9906 18.6571C31.9906 16.7347 31.9013 16.3482 31.3855 15.8725C30.9689 15.4959 30.6614 15.4464 28.6874 15.4464C27.0011 15.4464 26.7531 15.4662 26.4853 15.6347ZM30.4828 16.9527C30.5622 17.0319 30.6019 17.5572 30.6019 18.6869C30.6019 20.1733 30.592 20.3021 30.4134 20.4012C30.1257 20.5499 27.1995 20.5301 27.0507 20.3814C26.882 20.213 26.882 17.1211 27.0507 16.9527C27.2193 16.7842 30.3142 16.7842 30.4828 16.9527Z" stroke="white" stroke-width="4" mask="url(#path-1-inside-1_23_314)"/>
<path d="M6.02118 25.1678C5.76327 25.2966 5.4756 25.5543 5.32681 25.7822C5.05898 26.1786 5.05898 26.2182 5.02922 28.0416C4.98954 30.1821 5.07882 30.5488 5.75335 31.0641L6.1303 31.3515L7.97533 31.3812C8.98713 31.401 9.96917 31.3911 10.1477 31.3515C10.5445 31.2821 11.1496 30.7668 11.3182 30.3407C11.4174 30.1128 11.4571 29.4984 11.4571 28.1804C11.4571 26.5651 11.4373 26.2975 11.2686 25.9705C10.8223 25.0885 10.4255 24.9597 8.2134 24.9597C6.60643 24.9597 6.40804 24.9795 6.02118 25.1678ZM9.94933 26.466C10.118 26.6344 10.118 29.7263 9.94933 29.8947C9.7807 30.0632 6.68579 30.0632 6.51716 29.8947C6.4378 29.8155 6.39812 29.2902 6.39812 28.1804C6.39812 27.0705 6.4378 26.5453 6.51716 26.466C6.59651 26.3867 7.12225 26.3471 8.23324 26.3471C9.34423 26.3471 9.86997 26.3867 9.94933 26.466Z" stroke="white" stroke-width="4" mask="url(#path-1-inside-1_23_314)"/>
<path d="M16.3375 25.1282C15.9011 25.3363 15.4547 25.8615 15.3357 26.3173C15.1968 26.8128 15.1968 29.5578 15.3357 30.0632C15.4745 30.5587 15.7324 30.8956 16.1987 31.1731C16.5458 31.3911 16.6748 31.401 18.4901 31.401C20.2954 31.401 20.4343 31.3911 20.8013 31.183C21.0394 31.0443 21.3072 30.7767 21.456 30.5091C21.7139 30.083 21.7239 29.9938 21.7536 28.4182C21.7933 26.6047 21.7139 26.1291 21.3072 25.6435C20.8013 25.0489 20.4442 24.9597 18.4504 24.9597C17.0121 24.9597 16.6054 24.9993 16.3375 25.1282ZM20.226 26.5056C20.355 26.6344 20.3847 26.9218 20.3847 28.1407C20.3847 28.983 20.3351 29.7164 20.2855 29.8254C20.1863 30.0037 20.0574 30.0137 18.5 30.0137C16.9426 30.0137 16.8137 30.0037 16.7145 29.8254C16.6649 29.7164 16.6153 28.983 16.6153 28.1407C16.6153 26.9218 16.645 26.6344 16.774 26.5056C17.0021 26.2678 19.9979 26.2678 20.226 26.5056Z" stroke="white" stroke-width="4" mask="url(#path-1-inside-1_23_314)"/>
<path d="M26.634 25.1183C26.1877 25.3165 25.9595 25.5246 25.7314 25.9705C25.5627 26.2975 25.5429 26.5651 25.5429 28.1804C25.5429 29.4984 25.5826 30.1128 25.6818 30.3407C25.8504 30.7668 26.4555 31.2821 26.8523 31.3515C27.0308 31.3911 28.0129 31.401 29.0247 31.3812L30.8697 31.3515L31.2466 31.0641C31.9212 30.5488 32.0105 30.1821 31.9708 28.0416C31.941 26.2182 31.941 26.1786 31.6732 25.7822C31.197 25.0588 30.83 24.9597 28.7568 24.9597C27.3979 24.9696 26.9019 24.9993 26.634 25.1183ZM30.4828 26.466C30.6515 26.6344 30.6515 29.7263 30.4828 29.8947C30.3142 30.0632 27.2193 30.0632 27.0507 29.8947C26.882 29.7263 26.882 26.6344 27.0507 26.466C27.13 26.3867 27.6558 26.3471 28.7668 26.3471C29.8777 26.3471 30.4035 26.3867 30.4828 26.466Z" stroke="white" stroke-width="4" mask="url(#path-1-inside-1_23_314)"/>
</svg>
