<svg width="30" height="34" viewBox="0 0 30 34" fill="none" xmlns="http://www.w3.org/2000/svg">
<path d="M12.6203 0.153769C11.9893 0.241956 10.8749 0.506517 10.1231 0.753441C5.23621 2.2879 1.54418 6.07995 0.335883 10.7715C0.0539463 11.8827 0.000244141 12.4294 0.000244141 14.105C0.000244141 16.3097 0.174776 17.3679 0.819202 19.0258C1.57103 21.0012 3.15525 23.2059 4.82002 24.6169C5.49129 25.1813 5.53157 25.2518 5.45102 25.7633C5.26306 27.0156 4.29642 29.1673 3.16867 30.8782C2.53767 31.8482 2.01408 32.7654 2.01408 32.9594C2.01408 33.3121 2.45712 34 2.67193 34C2.73906 34 3.2358 33.8942 3.78625 33.7531C6.36395 33.1005 9.21017 31.4426 11.2374 29.4319L12.4726 28.2149H14.7952C17.5072 28.2326 19.1048 27.9327 21.1858 27.0156C25.6565 25.0755 28.7578 21.4421 29.7513 16.9799C30.1272 15.269 30.0735 12.5705 29.617 10.8244C28.798 7.64968 26.8916 4.8806 24.1662 2.90521C20.9709 0.594705 16.7822 -0.410629 12.6203 0.153769ZM17.1849 2.95812C20.689 3.52252 23.6829 5.28626 25.7102 7.96715C26.8782 9.51924 27.4018 10.6304 27.724 12.2178C28.9457 18.4261 24.0454 24.3347 16.8225 25.3753C15.4933 25.5693 13.1976 25.4988 12.2309 25.2518C11.9356 25.1636 11.7342 25.3047 11.13 25.975C10.1365 27.1038 8.71342 28.356 7.55883 29.1321C7.02181 29.4848 6.55191 29.767 6.51163 29.767C6.47136 29.767 6.61904 29.3084 6.83385 28.744C7.04866 28.1796 7.41115 26.8568 7.65281 25.8162C7.98844 24.2818 8.04215 23.8585 7.89447 23.7527C7.80049 23.6645 7.18291 23.1883 6.51163 22.6768C5.08853 21.5832 3.46404 19.5549 2.84646 18.1087C1.78584 15.6394 1.75899 12.8174 2.79276 10.2953C3.32978 8.97248 5.11538 6.69726 6.37738 5.70956C9.4384 3.36378 13.3855 2.35845 17.1849 2.95812Z" fill="white"/>
</svg>
