<svg width="34" height="24" viewBox="0 0 34 24" fill="none" xmlns="http://www.w3.org/2000/svg">
<path d="M18.1591 3.72016V7.44033H17.6569C16.6617 7.44033 14.3426 7.78272 12.7448 8.17119C11.3935 8.50041 8.54484 9.61975 7.45833 10.2584C3.65097 12.484 1.37752 15.1177 0.318399 18.5679C0.0627489 19.4041 -0.0285546 20.4247 0.00796681 22.2222L0.0353578 24L0.227095 23.7366C0.692743 23.1111 0.765786 23.0123 0.811437 22.9794C0.838828 22.9597 0.930132 22.8412 1.03057 22.716C1.12187 22.5909 1.35926 22.2617 1.56013 21.9918C1.76099 21.7218 1.98012 21.4519 2.05316 21.3926C2.12621 21.3399 2.18099 21.2675 2.18099 21.2346C2.18099 21.1687 2.46403 20.8658 3.21272 20.1152C3.78793 19.5424 5.46791 18.2782 6.15269 17.9095C6.38095 17.7844 6.70964 17.6 6.86486 17.5078C7.40355 17.1918 8.81875 16.6058 9.81396 16.2765C10.8822 15.9276 12.06 15.6379 13.3383 15.4074C14.16 15.2626 16.3148 15.1572 17.5474 15.1967L18.1591 15.223V18.9037C18.1591 21.8074 18.1865 22.5844 18.2778 22.5844C18.3326 22.5844 21.9025 20.0494 26.1938 16.9547L34.0002 11.3251L26.1481 5.66255C21.8295 2.54815 18.2687 4.74975e-08 18.2321 4.74975e-08C18.1865 4.74975e-08 18.1591 1.67243 18.1591 3.72016ZM25.8103 7.51276C28.6773 9.59342 31.0329 11.3185 31.0329 11.3449C31.0329 11.3712 28.5951 13.149 25.6277 15.2955L20.2134 19.1934L20.1678 16.5267L20.1221 13.8667L19.7113 13.8074C19.0447 13.7086 14.8265 13.7218 14.1874 13.8206C13.8861 13.8667 13.457 13.9325 13.2287 13.9588C12.6809 14.0247 11.2018 14.321 10.5809 14.4856C10.307 14.5646 9.89613 14.67 9.66787 14.7292C8.80962 14.9399 5.81487 16.1514 5.55922 16.3885C5.53183 16.4082 5.34922 16.5136 5.14835 16.6255C4.63705 16.8955 4.37227 17.0667 3.37706 17.758C2.89316 18.0938 2.49142 18.3704 2.48229 18.3704C2.40925 18.3704 2.78359 17.5078 3.18533 16.7111C3.4775 16.1449 4.28097 15.0321 4.79227 14.4922C5.03879 14.2288 5.28531 13.9654 5.33096 13.9062C5.38574 13.8469 5.47704 13.7547 5.54096 13.7021C5.60487 13.656 5.87878 13.4123 6.14356 13.1753C6.66399 12.7078 7.52224 12.1021 8.25267 11.6872C8.50832 11.5424 8.72745 11.4107 8.75484 11.3909C9.26614 11.0222 11.4574 10.1202 12.9091 9.6856C14.4157 9.23786 16.7348 8.90864 18.8895 8.82963L20.1221 8.79012L20.1495 6.13663L20.1678 3.48313L20.3778 3.60823C20.4873 3.67407 22.9343 5.4321 25.8103 7.51276Z" fill="white"/>
</svg>
