<svg width="43" height="36" viewBox="0 0 43 36" fill="none" xmlns="http://www.w3.org/2000/svg">
<path d="M30.4828 11.2218C30.4917 11.2754 30.4999 11.3288 30.5074 11.3821L30.5084 11.3896L30.5094 11.3971C30.5153 11.4446 30.5198 11.4776 30.5237 11.5025C30.5261 11.5181 30.5277 11.5267 30.5284 11.5302C30.5288 11.5324 30.5289 11.5326 30.5285 11.5312L30.5285 11.531C30.5273 11.5258 30.5148 11.4729 30.4763 11.4013C30.4739 11.3968 30.4713 11.3922 30.4687 11.3876C30.4568 11.3666 30.4428 11.3443 30.4262 11.3213C30.3736 11.2482 30.3169 11.1973 30.2726 11.1643L30.1709 11.4295L30.1669 11.4401L29.9633 11.9707H32.2473H32.6926C33.5882 11.9707 34.2483 11.9732 34.7604 11.9828C34.8712 11.9338 34.9852 11.8806 35.1035 11.8231L38.5225 5.89218C38.3713 3.2283 36.6072 1.0084 34.003 0.195834C33.373 -0.00521299 31.5501 -0.0554749 30.8192 0.112065C30.1052 0.271227 28.8955 0.87437 28.2571 1.38537M30.4828 11.2218C31.0557 11.4151 31.5685 11.4932 32.2473 11.4932C33.2068 11.4932 33.7634 11.3629 34.6661 10.9238L34.6663 10.9237C34.9764 10.773 35.1451 10.6745 35.3008 10.5587C35.4657 10.4362 35.6452 10.2727 35.9599 9.95896C36.2958 9.62401 36.4516 9.45433 36.5692 9.29385C36.6816 9.14041 36.78 8.96667 36.9591 8.59725L36.9597 8.59595C37.4457 7.59737 37.5807 6.9293 37.5242 5.9498L37.5241 5.94885C37.3973 3.71453 35.9246 1.84297 33.7052 1.15044L33.699 1.14853C33.5316 1.09506 33.0444 1.03203 32.4222 1.01537C31.8112 0.999015 31.2785 1.03272 31.0427 1.08678L31.0368 1.08813L31.0368 1.08811C30.7931 1.14242 30.3947 1.29345 29.9552 1.5121C29.5225 1.72737 29.1291 1.96874 28.8844 2.16417M30.4828 11.2218C30.4145 11.1988 30.3455 11.1741 30.2751 11.1478C30.2393 11.134 30.218 11.1255 30.2038 11.1194C30.1961 11.1161 30.1937 11.1149 30.1953 11.1157C30.1968 11.1164 30.2015 11.1187 30.2085 11.1226C30.2214 11.1297 30.2419 11.1419 30.2667 11.16L30.1652 11.4303L30.1613 11.4408L29.9624 11.9707H29.6814C29.5731 11.8938 29.5507 11.7895 29.5172 11.5215C29.2483 9.61156 27.8958 7.44192 26.2913 6.3948M30.4828 11.2218C30.1355 9.13564 28.7258 6.86465 26.9848 5.65629M28.8844 2.16417C28.8852 2.16345 28.8861 2.16274 28.887 2.16203L28.2571 1.38537M28.8844 2.16417C28.8836 2.16481 28.8827 2.16545 28.882 2.16609L28.2571 1.38537M28.8844 2.16417C27.8574 2.99833 27.1464 4.29058 26.9848 5.65629M28.2571 1.38537C26.997 2.40736 26.1485 3.98223 25.9805 5.64087M25.9805 5.64087L26.2555 5.668L26.4882 5.32207L26.8439 5.5613C26.8911 5.59218 26.9381 5.62385 26.9848 5.65629M25.9805 5.64087L26.2551 5.66868L25.9301 6.15187M25.9805 5.64087L25.9301 6.15187M26.9848 5.65629C26.9815 5.68437 26.9784 5.71249 26.9755 5.74063C26.9755 5.74097 26.9755 5.74131 26.9754 5.74165L26.9253 6.25002L26.4221 6.20039L26.2913 6.3948M25.9301 6.15187L26.2913 6.3948M25.9301 6.15187L26.4185 6.20003L26.2913 6.3948M23.5108 6.68799C24.5944 6.99794 25.3925 7.47543 26.2409 8.3215C26.8038 8.88276 27.0894 9.24297 27.3498 9.74559L24.3961 18.4628C23.6672 18.441 22.6785 18.4322 21.7242 18.4336C20.8603 18.4348 19.9705 18.4444 19.2738 18.4637C18.0005 17.9081 16.8978 16.9337 16.2191 15.5927C15.6899 14.5456 15.5723 14.0514 15.5723 12.7613C15.5723 11.7644 15.6059 11.4964 15.7655 10.9603M23.5108 6.68799C22.7883 6.48695 21.4358 6.40318 20.7638 6.52045M23.5108 6.68799L23.2358 7.64944C23.237 7.64979 23.2382 7.65014 23.2395 7.6505M23.5108 6.68799L23.2427 7.65138C23.2416 7.65109 23.2405 7.65079 23.2395 7.6505M20.7638 6.52045C19.2181 6.79689 17.7648 7.67648 16.8324 8.90789M20.7638 6.52045L20.9357 7.50557C20.9363 7.50546 20.9369 7.50536 20.9375 7.50525M20.7638 6.52045L20.9398 7.50483C20.9391 7.50497 20.9383 7.50511 20.9375 7.50525M16.8324 8.90789C16.3031 9.61156 16.0343 10.1226 15.7655 10.9603M16.8324 8.90789L17.6296 9.51157C17.6299 9.51108 17.6303 9.51059 17.6307 9.5101M16.8324 8.90789L17.6315 9.50897C17.6313 9.50935 17.631 9.50973 17.6307 9.5101M15.7655 10.9603L16.7177 11.2658C16.7187 11.2624 16.7198 11.2591 16.7209 11.2558M15.7655 10.9603L16.7239 11.2456C16.7229 11.249 16.7219 11.2524 16.7209 11.2558M16.7209 11.2558C16.6033 11.6516 16.5723 11.8155 16.5723 12.7613C16.5723 13.3835 16.6019 13.7397 16.6718 14.0441C16.7406 14.3433 16.8604 14.6445 17.1113 15.1411L17.1116 15.1416C18.6194 18.1199 22.6394 18.9424 25.1848 16.7967L25.1851 16.7965C27.151 15.1404 27.6672 12.5027 26.4643 10.2102L26.4619 10.2056C26.2662 9.82797 26.0572 9.55047 25.5348 9.0296C24.7995 8.29632 24.1481 7.91091 23.2395 7.6505M16.7209 11.2558C16.9531 10.5345 17.1691 10.1239 17.6307 9.5101M17.6307 9.5101C18.4071 8.48564 19.6345 7.73891 20.9375 7.50525M20.9375 7.50525C21.1604 7.46668 21.5751 7.45342 22.0572 7.48298C22.5331 7.51215 22.9727 7.57672 23.2395 7.6505M9.5117 1.10068L9.52038 1.09893L9.52903 1.09702C9.78993 1.03954 10.2299 1.001 10.7198 1.00002C11.2069 0.999042 11.6527 1.03534 11.924 1.09102C12.1901 1.14734 12.5959 1.29581 13.032 1.50895C13.4661 1.72107 13.8557 1.96082 14.1 2.16019L14.1 2.1602L14.1032 2.16279C15.2186 3.0652 15.9205 4.43133 16.0195 5.87653C16.0195 5.8766 16.0195 5.87667 16.0195 5.87673L16.0363 6.12827L15.95 6.20206C15.9496 6.20243 15.9491 6.20279 15.9487 6.20316C14.7576 7.21486 13.7177 8.96758 13.3026 10.5651C13.2614 10.7221 13.2331 10.8266 13.2101 10.9028C12.5573 11.2707 11.6863 11.4932 10.7 11.4932C9.78766 11.4932 9.21397 11.3569 8.32307 10.9238L8.323 10.9237C8.01293 10.773 7.8442 10.6745 7.68848 10.5587C7.52363 10.4362 7.34404 10.2727 7.0294 9.95896C6.69351 9.62401 6.53768 9.45433 6.42011 9.29385C6.30769 9.14041 6.20934 8.96666 6.03022 8.59725L6.02959 8.59595C5.54362 7.59737 5.40858 6.9293 5.46511 5.9498L5.46518 5.94859C5.55043 4.43962 6.24385 3.0802 7.37797 2.16499C7.62316 1.96901 8.01935 1.72527 8.45221 1.5104C8.89421 1.291 9.28443 1.14654 9.5117 1.10068ZM10.5848 13.9791L13.1041 13.9729C13.2327 14.8033 13.506 15.6626 13.8589 16.4375C14.0994 16.9658 14.3893 17.4819 14.7173 17.9378C13.6841 18.4353 12.5425 19.2078 11.7846 19.943C10.4696 21.2173 9.35119 23.1278 8.8846 24.9041C8.66009 25.7512 8.62532 26.176 8.59136 27.7079C8.58459 27.9834 8.57876 28.2119 8.57305 28.4023C8.40238 28.3843 8.21682 28.3637 8.02518 28.3417C7.35407 28.2646 6.63474 28.1723 6.23723 28.1089L6.23621 28.1087C5.01038 27.9144 2.94283 27.4547 1.57065 27.0556L1.56622 27.0543L1.02611 26.8999L1.00608 23.9899C1.00608 23.9896 1.00607 23.9893 1.00607 23.989C0.989082 20.5319 1.00295 20.3487 1.13737 19.6783C1.71364 16.8678 3.86367 14.7044 6.65527 14.1168L6.65737 14.1164C7.15994 14.0095 7.58035 13.9791 10.5824 13.9791L10.5848 13.9791ZM9.36356 28.4733C9.36285 28.4733 9.36195 28.4733 9.36085 28.4732L9.36428 28.4734C9.36613 28.4734 9.36602 28.4734 9.36356 28.4733ZM35.1278 29.2053C35.1277 29.205 35.1275 29.2037 35.1272 29.2015C35.1277 29.2045 35.1279 29.2059 35.1278 29.2053ZM35.254 28.4332C35.1988 28.4363 35.1429 28.4396 35.0871 28.4431C35.082 28.2953 35.0766 28.1254 35.0704 27.9292L35.0697 27.9086L35.0697 27.9062C34.9908 25.5996 34.7536 24.4502 33.9393 22.8262L33.9386 22.8248C32.8471 20.6562 31.0557 18.924 28.8884 17.9299C29.7305 16.7623 30.3449 15.2897 30.505 13.9707H32.6926C35.3673 13.9707 35.7542 13.9999 36.2984 14.1098C39.1232 14.6915 41.2757 16.847 41.8431 19.6763L41.8439 19.6803C41.9786 20.3375 42 20.5887 42 23.9194V26.8844L41.9334 26.9155C41.933 26.9156 41.9326 26.9158 41.9322 26.916C40.3341 27.6548 37.634 28.2793 35.254 28.4332ZM18.3797 20.5079L18.3807 20.5078C18.8012 20.464 20.2227 20.4357 21.7271 20.4336C23.2295 20.4314 24.6592 20.4557 25.0982 20.4996C27.7811 20.7732 29.9822 22.388 31.0141 24.8334C31.2758 25.4621 31.3795 25.7454 31.4453 26.3528C31.5195 27.0382 31.5369 28.085 31.5582 30.2205L31.5582 30.2216L31.593 33.3612L31.4744 33.4162L31.4741 33.4163C29.9518 34.1217 27.681 34.666 24.9595 34.9367C23.5557 35.0709 19.9557 34.982 18.3525 34.7651L18.3516 34.765C16.346 34.4956 14.5389 34.1128 12.3841 33.4813L12.383 33.481L12.0743 33.3909L12.0947 30.1608C12.0948 30.1604 12.0948 30.16 12.0948 30.1596C12.129 26.2951 12.1453 26.2363 12.2757 25.7655L12.2769 25.7613L12.2769 25.7613L12.279 25.7537C12.3794 25.3799 12.5971 24.8516 12.876 24.314C13.1554 23.7756 13.4587 23.2999 13.6997 23.0135L13.7032 23.0093C14.848 21.6335 16.609 20.6903 18.3797 20.5079Z" stroke="white" stroke-width="2"/>
</svg>
