<svg width="143" height="143" viewBox="0 0 143 143" fill="none" xmlns="http://www.w3.org/2000/svg">
<path d="M66.2545 0.174393C52.3834 1.11432 38.1135 6.75389 26.8628 15.726C23.7582 18.2039 18.1186 23.8435 15.6406 26.9482C6.61162 38.2558 1.11445 52.2123 0.117558 66.2828C-0.195752 70.8685 0.146041 79.5842 0.801144 83.2015C3.42155 98.0695 9.60231 110.317 19.7422 120.77C30.1099 131.48 42.8986 138.316 57.4818 141.021C77.8184 144.781 98.8102 139.455 115.159 126.41C120.742 121.967 126.809 115.273 130.682 109.263C136.237 100.633 139.768 91.2052 141.42 80.6381C142.275 74.97 142.275 65.7986 141.42 60.1305C138.715 42.5282 130.084 27.2899 116.441 15.9823C102.513 4.44679 84.9676 -1.07886 66.2545 0.174393ZM68.9034 10.6845C67.9065 23.8435 62.5802 36.6892 53.9214 46.8576L53.3233 47.5696L41.5884 35.8063L29.8535 24.0714L31.1637 22.8751C32.9581 21.2231 37.1451 18.2894 40.2782 16.5235C48.4527 11.8238 58.9629 8.71921 68.4191 8.17802L69.1027 8.14955L68.9034 10.6845ZM83.6859 9.31734C93.37 11.2257 103.083 15.726 110.688 21.8213C111.741 22.6473 112.596 23.4163 112.596 23.5017C112.596 23.5872 103.254 33.0434 91.8035 44.465L71.0111 65.2574L65.1721 59.4185C61.9536 56.1999 59.3332 53.494 59.3332 53.3801C59.3332 53.2377 60.1307 52.2123 61.0706 51.073C63.5771 48.1393 67.5647 42.0155 69.5869 38.0564C73.6884 29.9958 75.8816 22.4764 76.907 12.9062L77.3912 8.4059L79.1286 8.57678C80.0686 8.69072 82.1193 9.00403 83.6859 9.31734ZM120.286 31.4199C126.438 39.1103 130.768 48.4526 132.79 58.4785C133.702 62.9218 133.759 62.7225 131.337 62.9218C126.609 63.3206 120.03 64.8017 114.59 66.6816C106.529 69.4729 96.3607 75.5966 90.1515 81.4641L88.6419 82.8882L82.746 76.9923L76.85 71.0964L97.6424 50.304C109.064 38.8539 118.52 29.5116 118.606 29.5116C118.691 29.5116 119.46 30.3661 120.286 31.4199ZM35.8349 41.7592C42.2435 48.1678 47.4274 53.4656 47.3704 53.5225C47.285 53.5795 46.402 54.3201 45.3766 55.146C43.041 57.0829 37.4869 60.7287 34.6101 62.2098C30.7935 64.2036 26.0938 65.9695 21.6505 67.1088C17.5205 68.1627 11.5676 69.1026 9.17507 69.1026H8.03576L8.20665 67.3082C9.26051 56.4847 12.1658 47.3703 17.1787 39.0248C19.4858 35.2651 23.4164 30.0812 24.0146 30.0812C24.1 30.0812 29.3978 35.3221 35.8349 41.7592ZM59.3332 65.2574L65.1721 71.0964L44.3797 91.8888C32.9581 103.339 23.5019 112.653 23.4164 112.624C22.9892 112.453 20.1979 108.864 18.4889 106.301C13.3335 98.5822 9.45989 88.0721 8.49148 79.1855L8.2921 77.4195L10.6847 77.2202C18.1756 76.622 25.3817 75.027 31.477 72.6344C37.7717 70.1564 46.402 65.0865 50.9307 61.1844C52.0416 60.2445 53.0669 59.4469 53.2094 59.4469C53.3803 59.4185 56.1146 62.0389 59.3332 65.2574ZM133.844 73.8592C133.132 85.1953 129.458 96.2751 123.448 105.276C121.397 108.352 118.435 112.112 118.065 112.112C117.951 112.112 112.624 106.871 106.187 100.434L94.5378 88.7841L95.3638 87.8727C97.9557 85.1668 104.564 80.4387 109.206 77.9607C115.644 74.5428 124.644 71.8369 132.249 71.0109C132.79 70.954 133.417 70.8685 133.645 70.8685C133.986 70.8115 134.015 71.3527 133.844 73.8592ZM77.1064 83.0306L83.0308 88.955L81.3218 91.2337C73.1473 101.943 67.6786 116.697 67.1089 129.685C67.0235 131.736 66.8526 133.559 66.7671 133.701C66.2545 134.47 56.2285 132.648 50.5605 130.768C42.8986 128.204 36.7748 124.786 29.882 119.175C29.2839 118.691 29.5687 118.378 50.0763 97.8701C61.4978 86.4486 70.9256 77.0778 71.0111 77.0778C71.0965 77.0778 73.8309 79.7551 77.1064 83.0306ZM100.633 106.586L112.169 118.121L110.887 119.289C107.099 122.679 100.348 126.78 94.5378 129.173C88.6134 131.594 81.4073 133.417 77.1349 133.559L75.1411 133.616L75.2265 131.195C75.6253 121.027 78.8153 110.63 84.284 101.573C86.0784 98.6107 88.6134 95.0219 88.8982 95.0219C89.0122 95.0219 94.2815 100.234 100.633 106.586Z" fill="white"/>
</svg>
