<svg width="111" height="107" viewBox="0 0 111 107" fill="none" xmlns="http://www.w3.org/2000/svg">
<path d="M92.8738 1.7382C87.8415 2.77937 83.7347 3.82054 83.7347 4.05191C83.6768 4.34112 86.8582 8.67932 90.7336 13.7695C96.6336 21.4047 98.0218 22.9086 99.063 22.6772C99.6992 22.5037 101.955 22.041 104.037 21.6361C107.045 21.0576 107.797 20.6527 107.913 19.7851C107.971 19.1488 107.219 14.4636 106.178 9.37343C104.558 1.21762 104.211 0.118607 103.17 0.00292206C102.534 -0.0549202 97.9061 0.754877 92.8738 1.7382Z" fill="white"/>
<path d="M61.9277 7.92759C59.3248 8.50601 57.069 9.0266 56.8954 9.14228C56.6062 9.48934 70.9512 27.8833 71.4718 27.8833C72.9178 27.8833 80.958 26.2059 81.1893 25.8588C81.3629 25.5696 68.4061 8.33248 67.1336 7.29132C66.9022 7.11779 64.5885 7.407 61.9277 7.92759Z" fill="white"/>
<path d="M35.32 13.1333C32.6593 13.7117 30.4034 14.2901 30.2877 14.4058C30.0564 14.5793 43.0131 31.5851 44.3435 32.9154C44.9219 33.4939 54.9287 31.5851 54.7552 30.9488C54.5238 30.4282 40.4102 11.9764 40.2367 12.0342C40.1788 12.0921 37.923 12.5548 35.32 13.1333Z" fill="white"/>
<path d="M9.23324 18.397C5.58915 19.0911 2.58133 21.2891 1.13527 24.2391C-0.368641 27.4204 -0.368641 29.4449 1.07743 36.5595C2.11859 41.7076 2.23428 44.484 2.23428 70.3397C2.23428 96.3689 2.34996 98.6247 3.33329 100.765C4.60583 103.541 5.87837 104.756 8.7705 105.971C10.6215 106.723 16.6949 106.838 56.4328 106.838C99.4099 106.838 102.129 106.781 104.327 105.739C107.103 104.467 108.318 103.194 109.532 100.302C110.284 98.509 110.4 94.0552 110.4 70.1083V42.0546L56.7799 41.9389L3.10192 41.7654L15.7116 39.2203C22.6527 37.8321 28.2056 36.5017 28.1478 36.2125C28.0321 35.9811 24.8508 31.7586 21.0331 26.7841C13.6293 17.1823 13.9763 17.4715 9.23324 18.397ZM99.6992 74.4465V96.1375H56.3172H12.9352L12.7616 75.0249C12.7038 63.3985 12.7616 53.5653 12.9352 53.1604C13.1087 52.582 22.0743 52.4663 56.4328 52.582L99.6992 52.7555V74.4465Z" fill="white"/>
</svg>

