<svg width="141" height="142" viewBox="0 0 141 142" fill="none" xmlns="http://www.w3.org/2000/svg">
<path d="M57.6371 0.840744C30.3224 6.13724 9.2121 25.8856 1.87269 52.822C-0.624229 61.9773 -0.624229 79.0774 1.87269 88.2327C8.68245 113.429 27.5985 132.345 52.7946 139.155C61.95 141.652 79.05 141.652 88.2054 139.155C113.402 132.345 132.318 113.429 139.127 88.2327C141.624 79.0774 141.624 61.9773 139.127 52.822C132.318 27.7772 113.326 8.70981 88.6594 2.05138C80.866 -0.0672302 65.2792 -0.672531 57.6371 0.840744ZM86.6164 8.86113C92.3669 10.4501 100.539 13.9306 102.884 15.8222C104.095 16.7302 104.171 17.1842 103.338 18.9245L102.43 20.9674H86.3895H70.4243L64.2199 17.9408L58.0154 14.9899L59.3774 11.358C60.4367 8.40715 61.1177 7.65051 62.9336 7.19653C67.0951 6.21289 80.7903 7.19653 86.6164 8.86113ZM52.7189 10.0718C52.7189 10.3744 52.3406 11.8877 51.811 13.5523C50.9787 16.4275 50.449 16.8059 41.8233 21.1187C33.5003 25.3559 23.9666 28.4581 23.9666 27.0205C23.9666 26.2639 33.3489 18.6975 37.5861 16.0492C41.1423 13.855 50.1464 9.7691 51.811 9.69344C52.265 9.61778 52.7189 9.84477 52.7189 10.0718ZM108.029 40.0347C113.099 46.8445 117.412 52.7463 117.563 53.2003C117.79 53.8813 110.224 70.3004 109.089 71.511C108.937 71.6623 104.7 72.7973 99.6307 74.0079L90.4753 76.2022L88.3567 73.7052C87.2218 72.419 81.9253 66.2145 76.7045 60.0857L67.0951 48.8874L72.3916 38.2945L77.6881 27.7772H88.2811H98.874L108.029 40.0347ZM32.1383 44.4989L35.0892 56.3025L30.7764 67.1981L26.3878 78.0938L17.2325 81.2716L8.1528 84.4495L7.54749 81.65C6.41253 76.4291 6.94218 61.0693 8.3798 55.3945C9.51476 50.8547 14.7356 38.8241 17.0812 35.4192C17.5351 34.6626 27.9011 32.2413 29.0361 32.6953C29.1118 32.6953 30.4737 37.9918 32.1383 44.4989ZM133.15 58.0428C135.571 69.5437 133.982 84.3739 129.14 95.2695C127.551 98.9014 127.551 98.9014 123.843 98.9014C119.606 98.9014 120.514 100.717 116.352 84.2225L114.083 75.2185L119.53 64.4742C123.843 55.7729 125.356 53.4273 127.172 52.4436C131.107 50.4764 131.637 51.006 133.15 58.0428ZM73.3752 67.8034C78.6717 74.0079 82.9846 79.38 82.9846 79.6827C82.9846 80.061 80.185 84.5252 76.8558 89.5947C71.408 97.7664 70.3487 98.977 67.9274 99.5824C58.7721 102.004 49.6167 104.198 48.7844 104.198C48.2548 104.198 44.0932 99.2797 39.6291 93.3779L31.533 82.4823L35.7702 71.965C38.1158 66.2145 40.4614 60.3127 40.991 58.9507L42.0503 56.5295H52.8703H63.6902L73.3752 67.8034ZM88.5837 126.367L85.3302 132.572L80.5633 133.48C68.5327 135.75 54.2322 133.631 42.5043 127.805C36.3755 124.778 36.4512 125.157 40.764 118.725C42.8826 115.472 44.6986 112.748 44.8499 112.597C44.9255 112.521 50.7517 110.932 57.7884 109.192L70.5 106.014L81.1686 113.126L91.9129 120.239L88.5837 126.367ZM123.087 106.392C123.087 107.678 117.185 114.488 113.175 117.969C106.667 123.417 97.4364 129.167 95.0908 129.167C94.6368 129.167 95.3178 127.124 96.6041 124.627C98.7984 120.314 99.4793 119.709 109.694 112.899C119.53 106.316 123.087 104.576 123.087 106.392Z" fill="white"/>
</svg>
