<svg width="140" height="93" viewBox="0 0 140 93" fill="none" xmlns="http://www.w3.org/2000/svg">
<path d="M35.9475 0.201187C34.9404 0.313085 33.0661 0.760681 31.7513 1.1803C24.1981 3.53018 18.4074 8.42575 14.9105 15.4194C14.0992 16.986 2.51772 51.227 0.503545 57.941C0.0839241 59.2837 0 60.6265 0 64.7948C0 70.8653 0.363671 72.5997 2.6576 77.2435C8.64418 89.3565 22.5196 95.427 35.2481 91.4546C40.0038 89.972 44.3679 87.2025 47.8367 83.4819C50.6342 80.4886 52.2847 77.4393 54.5507 71.0891C55.1661 69.3826 56.7047 67.844 58.2433 67.3684C59.8379 66.8929 79.1964 66.8929 80.7909 67.3684C82.3295 67.844 83.8681 69.3826 84.4836 71.0891C86.7495 77.4393 88.4 80.4886 91.1975 83.4819C95.03 87.6221 99.7578 90.4755 105.017 91.8463C109.969 93.1331 117.326 92.7695 119.983 91.091C123.396 88.9089 123.089 83.6217 119.452 81.8593C118.277 81.2998 117.913 81.2439 116.151 81.4677C112.29 81.9153 108.71 81.7754 106.695 81.076C102.891 79.7612 99.1983 76.8798 97.268 73.6627C96.7365 72.7955 95.8133 70.6974 95.2259 68.963C93.7992 64.9626 92.6802 63.0883 90.2464 60.7944C87.7566 58.4445 85.0431 57.0737 81.7141 56.5142C77.9935 55.8708 58.1034 56.0946 55.6696 56.794C53.1239 57.5493 50.83 58.8641 48.7599 60.8503C46.3541 63.0883 45.2351 64.9626 43.8084 68.963C42.4656 72.7675 41.3466 74.7258 39.2765 76.7959C30.6882 85.3562 16.5051 82.5587 11.8053 71.3408C10.7982 68.935 10.4066 66.5292 10.5465 63.7317C10.6863 61.4658 11.1619 59.8432 17.4282 41.0163C22.4077 26.0778 24.4779 20.259 25.2332 18.9442C26.6879 16.5384 29.5413 13.9088 32.087 12.6499C36.0594 10.6917 34.0172 10.8036 69.5171 10.8036C105.045 10.8036 102.947 10.6917 107.003 12.6779C109.605 13.9368 112.878 17.0979 114.193 19.6156C115.06 21.2661 126.921 56.4583 127.984 60.5706C128.656 63.1442 128.684 65.8858 128.068 68.907C127.677 70.7813 127.649 71.3688 127.928 72.3199C129.187 76.4602 134.754 77.6072 137.3 74.2782C139.426 71.4248 139.985 63.7877 138.447 57.941C137.244 53.2972 125.215 17.5735 124.18 15.5033C120.347 7.89423 114.137 2.88676 105.744 0.648782C103.534 0.0613132 103.283 0.0613132 70.6361 0.00536382C52.5645 -0.0226109 36.9546 0.0613132 35.9475 0.201187Z" fill="white"/>
<path d="M42.5216 19.7555C40.6193 20.2031 39.3325 21.2661 38.6051 22.9726C38.4653 23.2803 38.2974 25.0987 38.2135 27.0289L38.0456 30.5258L34.4089 30.6656C31.2478 30.7775 30.6323 30.8894 29.7371 31.4489C26.2123 33.6309 26.6599 39.0301 30.4925 40.7645C31.3597 41.1841 32.3108 41.296 34.9125 41.296H38.1855V44.5691C38.1855 48.2337 38.5772 49.4926 40.0318 50.8634C42.9132 53.5489 47.7249 52.0663 48.7879 48.1498C48.9558 47.5344 49.0956 45.744 49.0956 44.1494V41.296H52.3966C56.2851 41.296 57.544 40.8484 58.8308 39.086C60.3415 36.9879 60.2296 34.3863 58.5231 32.428C57.2083 30.9174 56.3131 30.6656 52.5085 30.6656H49.1516L49.0397 27.0849C48.9278 23.2803 48.7599 22.7208 47.3332 21.2382C46.1863 20.0073 44.0882 19.3638 42.5216 19.7555Z" fill="white"/>
<path d="M94.0508 19.8953C91.7009 20.5107 90.1623 22.4689 90.1064 24.9307C90.0504 29.6025 95.5055 32.0642 99.0303 28.9311C103.227 25.2664 99.4779 18.4685 94.0508 19.8953Z" fill="white"/>
<path d="M82.2455 31.0574C81.77 31.2532 80.9867 31.8686 80.5111 32.4281C76.8184 36.6523 81.3783 43.0026 86.5257 40.8765C90.6939 39.1141 91.0855 33.687 87.1971 31.3091C85.9941 30.5818 83.6163 30.4419 82.2455 31.0574Z" fill="white"/>
<path d="M104.066 31.1133C102.136 32.1204 101.073 33.8268 101.073 35.9809C101.073 40.5687 106.444 42.9186 109.94 39.8414C112.598 37.5195 112.178 33.1554 109.129 31.3651C107.703 30.5258 105.381 30.4139 104.066 31.1133Z" fill="white"/>
<path d="M93.1557 42.0512C90.8338 43.2542 89.6029 45.7439 90.2183 48.0658C90.8897 50.5555 92.9599 52.1781 95.4496 52.2061C97.6316 52.2061 99.3381 51.0871 100.317 48.989C101.156 47.1706 100.905 45.2124 99.6178 43.45C98.387 41.7715 95.058 41.0442 93.1557 42.0512Z" fill="white"/>
</svg>