<svg width="116" height="149" viewBox="0 0 116 149" fill="none" xmlns="http://www.w3.org/2000/svg">
<path d="M51.5937 3.0733C47.04 4.49329 34.6031 8.31252 23.9778 11.5931C13.3525 14.8248 4.29403 17.8606 3.80439 18.3013C2.92303 19.0847 2.87407 20.6516 2.87407 53.3109V87.4881L1.55202 88.7612L0.181019 89.9853L0.0341252 100.953C-0.0638037 109.13 0.0341252 112.264 0.52377 113.439C1.11134 114.859 7.28087 119.756 41.7519 146.245C43.5146 147.616 45.0325 148.4 45.8649 148.4C46.6483 148.4 57.0777 142.867 71.914 134.543C85.5261 126.953 100.705 118.532 105.651 115.79C113.191 111.579 114.709 110.55 115.297 109.228C116.08 107.417 116.276 92.2866 115.541 90.377C115.248 89.5936 109.959 85.7743 99.8727 79.0172C89.2964 71.9663 84.3999 68.4409 83.9103 67.4616C83.2737 66.2375 83.1758 61.9286 83.1758 38.3277C83.1758 19.7212 83.0289 10.2711 82.6372 9.63455C81.8538 8.11665 80.14 7.72493 77.4959 8.41043C76.1739 8.80215 69.9064 10.6628 63.59 12.6214C34.1134 21.6798 26.4749 23.8832 24.7612 23.8832C22.8516 23.8832 18.0531 22.1205 18.0531 21.386C18.0531 20.6516 18.0041 20.7005 46.9421 11.8869C63.3942 6.9415 63.4431 6.89253 64.3245 5.5705C65.9403 3.26917 64.3245 0.331299 61.4845 0.42923C60.6032 0.42923 56.1964 1.65334 51.5937 3.0733ZM75.7332 17.6158C76.1739 18.0564 76.3208 23.5405 76.3208 39.356C76.3208 51.0095 76.1739 60.8514 76.027 61.2921C75.5863 62.4183 74.9008 62.2714 72.4036 60.6066C71.1795 59.8232 69.6616 59.1376 68.9761 59.1376C68.2906 59.1376 59.0363 63.0058 48.46 67.7064C33.4769 74.3656 29.0211 76.1773 28.5315 75.7366C27.9439 75.2959 27.846 71.2319 27.846 53.5067C27.846 33.5292 27.8949 31.8155 28.7273 31.081C29.6576 30.2486 71.914 17.1261 73.9215 17.0771C74.607 17.0282 75.3905 17.273 75.7332 17.6158ZM15.2621 28.29C20.0606 30.2976 20.5013 30.9341 20.5013 35.6347V39.405L18.6896 39.0622C16.1924 38.5726 13.3035 37.3484 11.3449 35.8306C9.77806 34.6554 9.72909 34.4595 9.72909 31.2769C9.72909 28.2411 10.2187 26.8211 11.3449 26.8211C11.5408 26.8211 13.3035 27.5066 15.2621 28.29ZM12.7159 39.307C13.8911 39.9925 16.1434 40.776 17.7103 41.0697L20.5013 41.6573V52.5764C20.5013 63.2017 20.4523 63.5444 19.522 63.5444C18.0531 63.5444 13.7442 61.7817 11.6387 60.3128L9.72909 58.9908V48.5613C9.72909 42.6856 9.92495 38.0829 10.1698 38.0829C10.4146 38.0829 11.5897 38.6215 12.7159 39.307ZM12.4711 63.3976C13.7931 64.132 16.0945 65.0134 17.5634 65.3072L20.2565 65.8458L20.4033 72.1132C20.5502 79.8007 20.4523 80.0455 15.2621 82.053C9.53323 84.3054 9.72909 84.6481 9.72909 72.3581C9.72909 66.6782 9.82702 62.0755 9.92495 62.0755C10.0229 62.0755 11.1491 62.6631 12.4711 63.3976ZM69.6616 67.6575C72.1588 68.6857 103.545 89.7894 103.888 90.6708C104.28 91.6501 103.055 92.4335 92.7239 97.8196C88.415 100.072 76.9573 106.046 67.3113 111.138C54.0909 118.091 49.3903 120.343 48.3131 120.245C47.3338 120.147 41.507 115.985 29.5597 106.878C20.0116 99.5823 12.1284 93.4128 11.9815 93.119C11.8835 92.8252 11.9325 92.3356 12.1284 91.9928C12.3242 91.6501 24.3695 86.1171 38.9119 79.6538C61.0439 69.7629 66.0382 67.5595 67.8989 67.0209C67.9479 66.972 68.7313 67.2657 69.6616 67.6575ZM108.539 101.786C108.735 105.85 108.588 105.997 99.7748 110.942C60.0156 133.172 47.6276 139.929 46.4525 139.929C45.3752 139.929 40.8215 136.697 27.5032 126.415C17.8572 119.021 9.38634 112.264 8.65187 111.481C7.32983 110.11 7.28087 109.816 7.28087 105.164C7.28087 102.324 7.47673 100.219 7.77051 100.023C8.45602 99.5823 8.01534 99.2396 28.4825 114.908C41.3112 124.652 46.8931 128.667 47.8235 128.667C48.8027 128.667 101.929 101.345 105.455 98.9947C105.993 98.652 106.875 98.4072 107.413 98.4561C108.246 98.5541 108.393 98.9947 108.539 101.786Z" fill="white"/>
<path d="M60.8969 73.3374C53.5522 76.3732 52.3281 77.0097 52.3281 77.6952C52.3281 78.1359 79.5524 97.1341 80.8255 97.5748C81.8537 97.9176 94.6824 90.2301 94.6824 89.2509C94.6824 88.7122 90.1777 85.2847 81.7068 79.409C74.558 74.4636 68.5354 70.4485 68.2416 70.4485C67.9968 70.4485 64.6672 71.7705 60.8969 73.3374ZM80.042 80.9759C86.3584 85.2358 91.4507 88.9081 91.4997 89.104C91.4997 89.2509 89.1494 90.7688 86.3095 92.3846L81.1682 95.3225L68.6823 86.7047C61.8272 81.9551 56.3432 77.9401 56.588 77.7442C57.2246 77.1077 67.703 72.8967 68.1926 72.9946C68.4374 73.0926 73.7746 76.667 80.042 80.9759Z" fill="white"/>
</svg>
