<svg width="20" height="21" viewBox="0 0 20 21" fill="none" xmlns="http://www.w3.org/2000/svg">
<path d="M6.47728 0.0283123C5.9465 0.0775511 5.63769 0.130073 5.21468 0.241681C4.21908 0.504288 3.30872 0.985187 2.4804 1.68766C2.27291 1.86328 1.82578 2.31956 1.65368 2.53129C0.741712 3.65229 0.19968 4.94071 0.0533151 6.34729C-0.00619582 6.90533 -0.0126294 7.10393 0.0179302 7.47979C0.0340143 7.67346 0.0565319 7.91309 0.0693991 8.01321C0.238281 9.35579 0.780313 10.6114 1.64242 11.6651C1.80808 11.8686 2.19571 12.2674 2.40802 12.4562C3.35698 13.2982 4.48929 13.8546 5.72615 14.086C6.3856 14.2091 7.24288 14.2271 7.9168 14.1336C8.93492 13.9908 9.9836 13.5838 10.8135 13.011C10.8779 12.9683 10.9454 12.9223 10.9647 12.9125C10.9985 12.8944 11.2172 13.1127 14.9037 16.8729C18.0095 20.0406 18.8218 20.8613 18.8861 20.8941C19.0116 20.9565 19.1949 21.0073 19.2705 20.9991C19.4619 20.9778 19.6244 20.9023 19.7595 20.7677C19.8946 20.6348 19.9782 20.4559 19.9991 20.2556C20.0072 20.1801 19.9589 19.9914 19.8962 19.8634C19.864 19.7977 19.0679 18.9771 15.9894 15.834C13.8631 13.6625 12.1228 11.8817 12.1228 11.8752C12.1228 11.8686 12.1726 11.8062 12.2321 11.734C13.9628 9.68405 14.4035 6.81014 13.3661 4.33014C13.1972 3.92803 13.0154 3.585 12.7565 3.1878C11.9668 1.97325 10.8328 1.03607 9.50912 0.505929C8.82394 0.230191 8.27226 0.103812 7.43428 0.0283123C7.01448 -0.00943744 6.89225 -0.00943744 6.47728 0.0283123ZM7.65945 1.54487C8.70813 1.69587 9.6024 2.0865 10.4179 2.75122C10.6077 2.90714 10.9599 3.2551 11.1256 3.45041C12.3431 4.89803 12.7549 6.82655 12.2418 8.66152C12.06 9.30983 11.703 10.0222 11.2961 10.549C10.175 11.9999 8.47974 12.791 6.68798 12.6975C4.7965 12.599 3.11089 11.5289 2.16837 9.83176C1.85955 9.27536 1.62633 8.57453 1.53305 7.92294C1.44941 7.33864 1.46067 6.66735 1.56361 6.09289C1.95123 3.94116 3.55963 2.19646 5.64091 1.66961C5.92238 1.59739 6.20063 1.55143 6.56574 1.51532C6.71693 1.50055 7.49057 1.52189 7.65945 1.54487Z" fill="white"/>
</svg>
