<svg width="117" height="113" viewBox="0 0 117 113" fill="none" xmlns="http://www.w3.org/2000/svg">
<path d="M72.8501 1.73331C70.5167 3.66664 69.5834 7.06664 70.7834 9.39997C71.2501 10.2666 73.7834 13.2666 76.5167 16L81.4501 21L76.1167 26.3333C72.4501 30 70.6501 32.2666 70.3834 33.7333C69.5834 38.1333 73.9834 42.5333 78.3834 41.7333C79.8501 41.4666 82.1167 39.6666 85.7834 35.9999L91.1167 30.6666L96.1167 35.5999C98.85 38.3333 101.85 40.8666 102.717 41.3333C106.717 43.3999 112.117 39.5333 112.117 34.5999C112.117 32.2 111.583 31.4666 106.65 26.3333L101.25 20.6666L106.65 15.0666C111.717 9.86664 112.117 9.33331 112.117 6.66664C112.117 2.73331 109.383 -2.28882e-05 105.45 -2.28882e-05C102.783 -2.28882e-05 102.25 0.399979 97.05 5.46664L91.4501 10.8666L85.7834 5.46664C80.6501 0.53331 79.9167 -2.28882e-05 77.5167 -2.28882e-05C75.6501 -2.28882e-05 74.3167 0.53331 72.8501 1.73331Z" fill="white"/>
<path d="M2.05 15.9331C-0.683333 18.6664 -0.683333 22.4664 2.05 25.4664L3.98333 27.6664L24.7166 27.8664C47.65 28.0664 48.3833 27.9331 50.5166 23.9331C51.9833 21.0664 51.25 17.8664 48.7166 15.7331L46.65 13.9998H25.3166H3.98333L2.05 15.9331Z" fill="white"/>
<path d="M23.05 61.3332C22.25 61.5998 20.9833 62.7332 20.1833 63.7332C18.9833 65.2665 18.7833 66.3998 18.7833 72.3332V79.1998L11.3833 79.4665L3.98333 79.6665L2.05 81.8665C-0.683333 84.8665 -0.683333 88.6665 2.05 91.3998C3.98333 93.3331 4.11666 93.3331 11.3833 93.3331H18.7833V100.733C18.7833 108 18.7833 108.133 20.7167 110.066C23.45 112.8 27.25 112.8 30.25 110.066L32.45 108.133L32.65 100.733L32.9166 93.3331H39.7833C46.1833 93.3331 46.85 93.1998 48.7166 91.5998C51.25 89.4665 51.9833 86.2665 50.5166 83.3998C48.85 80.1998 46.45 79.3331 39.1166 79.3331H32.7833V72.9998C32.7833 65.7332 31.9166 63.2665 28.7833 61.6665C26.65 60.5332 25.1833 60.4665 23.05 61.3332Z" fill="white"/>
<path d="M68.1832 69.7331C65.5832 71.8665 64.9166 75.0665 66.4499 77.9998C68.4499 81.8664 69.8499 82.0664 92.5165 81.8664L112.917 81.6664L114.85 79.4664C117.583 76.4665 117.583 72.6665 114.85 69.9331L112.917 67.9998H91.5832H70.2499L68.1832 69.7331Z" fill="white"/>
<path d="M68.1832 93.0666C65.5832 95.2 64.9166 98.3999 66.4499 101.333C68.4499 105.2 69.8499 105.4 92.5165 105.2L112.917 105L114.85 102.8C117.583 99.7999 117.583 95.9999 114.85 93.2666L112.917 91.3333H91.5832H70.2499L68.1832 93.0666Z" fill="white"/>
</svg>
