<svg width="124" height="153" viewBox="0 0 124 153" fill="none" xmlns="http://www.w3.org/2000/svg">
<path d="M57.6918 0.343811C55.3095 0.985214 51.736 4.71141 50.7587 7.58241C50.1478 9.38443 50.3005 11.7362 51.0946 12.6525C52.9883 14.8516 56.5007 13.6909 56.5007 10.8505C56.5007 9.59824 57.2337 8.13219 58.3027 7.21591C59.1274 6.54398 59.5855 6.39125 61.021 6.39125C63.1284 6.39125 64.4418 7.09373 65.1442 8.62086C65.8467 10.0869 65.7856 11.4308 64.9915 12.8358C64.2891 14.088 62.426 15.2486 61.1126 15.2486C60.1658 15.2486 58.7303 16.0427 58.2722 16.8674C58.0278 17.2644 57.814 19.2802 57.7224 22.0902L57.5697 26.6716L52.6829 29.2066C49.9951 30.581 47.6128 31.7416 47.399 31.7416C47.1852 31.7416 43.2757 33.6353 38.6943 35.926C34.1129 38.2472 29.4705 40.5685 28.3404 41.1182C25.9275 42.3094 25.0418 43.3173 25.0418 44.875C25.0418 46.3105 26.0802 47.5016 27.6074 47.7765C28.4931 47.9598 29.0429 47.8071 30.57 47.0129C31.6084 46.4937 32.5553 46.1578 32.6774 46.3105C32.7996 46.4326 33.5632 49.0288 34.3573 52.0525C35.1819 55.0762 36.5564 60.1463 37.4115 63.3532C38.2667 66.5297 39.5801 71.3249 40.2826 73.9515L41.5959 78.7467L40.4964 82.6867C38.9387 88.276 37.4115 92.7963 35.8233 96.492C33.5021 101.837 29.4094 109.625 27.3325 112.527C24.7058 116.223 21.224 120.224 19.8801 121.079C19.2692 121.476 18.2919 122.27 17.681 122.85C17.0702 123.4 15.6041 124.469 14.4129 125.202C12.1528 126.607 11.603 127.34 11.603 128.989C11.603 131.005 13.9243 132.593 15.8179 131.891C17.8032 131.127 22.1402 127.798 26.0191 124.011C28.3404 121.751 30.234 119.796 30.234 119.643C30.234 119.521 30.906 118.452 31.7306 117.322C32.5553 116.192 34.1435 113.749 35.243 111.916C36.3426 110.053 37.4115 108.373 37.5948 108.129C38.1446 107.518 41.6875 99.6379 42.3289 97.7137C42.6343 96.7974 43.3979 94.5067 44.0088 92.6742C44.6501 90.8111 45.6275 87.6652 46.1773 85.6494L47.1852 81.9843L51.1863 81.8315C55.6455 81.6483 56.1953 81.4345 56.7756 79.5714C57.1726 78.4413 56.8977 77.3723 56.012 76.2422C55.3401 75.4176 55.3401 75.4176 51.2474 75.4176H47.1546L46.666 73.4934C46.3911 72.455 45.4748 68.9731 44.5891 65.7967C43.7339 62.5897 42.9092 59.2911 42.7565 58.4664C42.6343 57.6112 41.6875 53.8545 40.6491 50.0672C39.2441 44.9666 38.8776 43.1646 39.1525 43.0729C39.3663 43.0119 40.6796 42.3705 42.0235 41.6374L44.528 40.3547L45.0472 41.7596C46.6965 46.0967 51.3695 50.3421 56.1953 51.8998C58.883 52.755 62.9757 52.8466 65.7551 52.1136C69.6951 51.0751 74.8873 46.7075 76.6894 42.8897C77.178 41.8818 77.5751 40.8739 77.5751 40.6601C77.5751 40.4768 77.6667 40.2936 77.7889 40.2936C77.9416 40.2936 82.3703 42.6148 82.6757 42.8591C82.7063 42.8897 82.3397 44.3557 81.8511 46.0661C81.3318 47.8071 80.9348 49.5174 80.9348 49.884C80.9348 50.4643 76.3534 67.9041 75.7425 69.6145C75.5898 70.0421 75.1622 71.5081 74.7957 72.8826L74.1543 75.4176H71.9553C70.6114 75.4481 69.5729 75.6008 69.237 75.8452C68.0153 76.792 67.8931 80.0601 69.0842 81.1291C69.4813 81.4956 70.3976 81.7094 72.0163 81.8315L74.3681 81.9843L75.0706 83.8168C76.6283 87.7568 79.4687 94.018 80.2018 94.9954C80.5988 95.5452 80.9348 96.1866 80.9348 96.4309C80.9348 97.0112 83.6225 101.318 86.0659 104.647C90.739 111.03 98.3746 118.971 101.398 120.651C102.712 121.384 106.407 123.797 106.591 124.041C106.835 124.347 112.516 127.035 112.943 127.035C113.89 127.035 113.402 127.737 111.63 128.837C109.003 130.486 103.261 133.449 102.651 133.449C102.376 133.449 101.093 133.815 99.7796 134.243L97.4278 135.037L95.5952 133.449C94.5873 132.563 93.7627 131.769 93.7627 131.647C93.7627 131.524 92.7242 130.181 91.4415 128.684C90.1587 127.218 88.265 124.866 87.2571 123.522C86.2187 122.178 85.2108 120.926 85.0275 120.773C84.5083 120.346 80.9348 114.818 80.9348 114.451C80.9348 114.268 80.4766 113.352 79.9269 112.405C76.8726 107.304 74.7957 103.059 72.9632 98.1718C71.6804 94.7205 70.7946 93.6821 69.0842 93.621C68.0763 93.621 67.6487 93.7737 66.8852 94.5067C65.6329 95.6979 65.694 96.828 67.1906 100.768C67.8625 102.539 68.4123 104.158 68.4123 104.403C68.4123 105.013 72.3523 112.71 74.4903 116.345C75.4677 117.994 77.3002 120.773 78.5219 122.514C79.7742 124.225 80.9653 125.996 81.1791 126.424C81.8816 127.798 85.1802 131.677 89.4256 136.197C96.0534 143.222 96.3588 143.497 104.269 149.331C108.515 152.477 108.881 152.69 110.225 152.69C112.577 152.69 113.921 150.95 113.31 148.72C113.005 147.62 111.783 146.276 111.111 146.276C110.744 146.276 107.385 143.986 106.682 143.283C106.377 142.978 105.491 142.214 104.697 141.573C103.872 140.932 103.231 140.321 103.231 140.198C103.231 140.107 104.575 139.465 106.194 138.794C107.812 138.122 110.47 136.839 112.058 135.923C113.676 135.037 115.662 133.937 116.486 133.479C118.105 132.563 119.938 131.097 122.381 128.684C123.817 127.31 124 126.974 124 125.874C124 124.897 123.786 124.377 123.175 123.705C122.32 122.82 121.984 122.698 116.059 121.201C113.463 120.56 108.637 118.055 106.407 116.253C106.102 115.978 104.88 115.001 103.689 114.054C100.36 111.366 94.9233 105.93 93.5489 103.944C92.877 102.967 91.3498 100.707 90.1587 98.9354C88.9675 97.1639 87.7458 95.4535 87.5014 95.1176C86.7684 94.2013 83.2866 87.2376 82.0954 84.2749C79.6825 78.4413 79.5909 79.4492 84.2945 62.1315C84.997 59.5965 86.2492 54.9235 87.1044 51.7471C87.929 48.5401 88.6926 45.8829 88.7537 45.8218C88.8453 45.7302 89.7616 46.0967 90.8001 46.6159C93.4267 47.8987 94.4346 48.0819 95.5952 47.4711C97.6111 46.4326 97.8249 43.47 95.9618 42.2483C94.5263 41.3015 75.9563 32.0165 74.5208 31.5278C73.7573 31.2835 71.1917 30.0618 68.8094 28.779L64.4418 26.5188V23.8006V21.0823L66.1522 20.2271C69.7562 18.4861 71.8331 14.9432 71.8331 10.5451C71.8331 8.4987 71.6804 7.88785 70.8863 6.26909C69.5729 3.61188 67.3739 1.44334 65.2359 0.618698C63.3728 -0.083786 59.7687 -0.205948 57.6918 0.343811ZM65.0526 33.9102C66.6408 34.7043 68.8094 35.8343 69.8478 36.3841L71.7109 37.392L71.1306 39.0413C70.6419 40.5074 69.237 42.6759 67.9847 43.9587C67.7404 44.203 66.6714 44.7528 65.6024 45.1804C62.7314 46.3105 59.1884 46.2799 56.5923 45.0582C53.7824 43.7754 51.4612 41.0266 50.8808 38.2472L50.667 37.3004L55.7982 34.6737C59.1884 32.9633 61.1432 32.1387 61.5402 32.2609C61.8762 32.3525 63.4644 33.0855 65.0526 33.9102Z" fill="white"/>
<path d="M54.5155 112.649C53.5382 113.077 52.9273 113.932 51.95 116.253C50.7893 118.971 50.1174 120.101 47.9183 123.217C45.5971 126.485 42.7566 129.6 40.4965 131.402C37.8087 133.54 30.1425 137.236 26.4163 138.183C19.2693 140.015 12.0613 139.832 5.89167 137.694C3.29555 136.808 1.95167 136.9 0.882682 138.061C-0.155767 139.16 -0.277938 140.657 0.51617 142.031C1.15757 143.1 3.81477 144.2 8.15183 145.146C12.5805 146.093 21.4379 146.093 25.8971 145.116C31.8834 143.803 39.2748 140.443 43.1537 137.236L44.8335 135.861L47.3686 137.144C52.9884 139.954 59.3718 142.031 65.969 143.222C70.7642 144.077 79.4383 144.627 80.9654 144.169C83.4089 143.436 84.1724 140.779 82.4926 138.885L81.6068 137.908L76.4757 137.694C71.5278 137.48 66.305 136.747 62.1512 135.709C57.7531 134.579 50.0869 131.83 50.0869 131.372C50.0869 131.28 50.6061 130.578 51.2475 129.814C53.1106 127.584 54.7599 124.958 56.2565 121.842C58.2723 117.719 58.6388 116.711 58.6388 115.551C58.6388 113.596 56.2259 111.916 54.5155 112.649Z" fill="white"/>
</svg>
