<svg width="35" height="39" viewBox="0 0 35 39" fill="none" xmlns="http://www.w3.org/2000/svg">
<path d="M29.0413 21.7708V21.7783L29.0415 21.7859C29.0434 21.9174 29.0857 24.0633 29.6707 26.4382C29.9633 27.6263 30.4015 28.9128 31.0658 30.0447C31.7304 31.1769 32.6553 32.2108 33.941 32.7907C33.9848 32.8104 34.0073 32.857 33.9977 32.9015L33.9976 32.9018C33.9878 32.9473 33.9471 32.981 33.8986 32.981H23.378H22.5435L22.3941 33.802C22.214 34.792 21.7452 35.716 21.0223 36.4682L21.0222 36.4682C20.065 37.4644 18.8156 38 17.4999 38C16.1844 38 14.935 37.4644 13.9776 36.4682C13.2548 35.7161 12.786 34.7921 12.6058 33.8019L12.4563 32.981H11.6219H1.10131C1.05273 32.981 1.0121 32.9472 1.00236 32.902L1.0023 32.9017C0.992696 32.8572 1.01529 32.8103 1.05933 32.7905C2.34501 32.2106 3.26992 31.1767 3.93443 30.0446C4.59886 28.9127 5.03701 27.6261 5.32966 26.4381C5.91465 24.0632 5.95697 21.9174 5.95889 21.7851L5.95899 21.7779V21.7706V16.3808C5.95899 11.6115 8.87716 7.50448 13.0311 5.75515L13.6406 5.49849L13.6409 5.40888L15.1523 5.09569C15.9101 4.93868 16.6952 4.85586 17.5001 4.85586C18.305 4.85586 19.0902 4.93873 19.848 5.09571L21.3593 5.40874L21.3596 5.49862L21.9691 5.75528C26.1232 7.50462 29.0413 11.6116 29.0413 16.381V21.7708ZM13.9888 3.8386L13.6423 5.03642L13.643 4.8372C13.6508 2.72212 15.3777 1 17.5001 1C19.6225 1 21.3495 2.722 21.3572 4.8373L21.3579 5.0365L21.0115 3.83867C20.5715 2.31726 19.1667 1.1995 17.5001 1.1995C15.8335 1.1995 14.4289 2.31737 13.9888 3.8386ZM29.8351 27.7168L29.6084 27.0304H28.8855H6.11448H5.39159L5.16492 27.7168C4.75179 28.9679 4.18107 30.1774 3.40134 31.1601L2.11459 32.7816H4.18468H30.8155H32.8856L31.5988 31.16C30.8189 30.1773 30.2482 28.9676 29.8351 27.7168ZM28.3049 26.8307H29.5307L29.2846 25.6299C28.8678 23.5967 28.8406 21.9411 28.839 21.7817V16.3808C28.839 10.1338 23.7521 5.05535 17.5001 5.05535C11.2482 5.05535 6.16131 10.1338 6.16131 16.3808V21.7732C6.15986 21.9318 6.13303 23.5921 5.71542 25.63L5.46937 26.8307H6.69507H28.3049ZM13.8817 32.9811H12.5472L12.9219 34.2619C13.5046 36.2535 15.331 37.8007 17.5001 37.8007C19.6694 37.8007 21.4956 36.2534 22.0782 34.2619L22.453 32.9811H21.1185H13.8817Z" stroke="white" stroke-width="2"/>
</svg>
