<svg width="125" height="109" viewBox="0 0 125 109" fill="none" xmlns="http://www.w3.org/2000/svg">
<path d="M23.344 0.3069C19.0885 1.90897 17.0108 6.18948 18.4126 10.495C18.9633 12.2223 20.8157 14.2499 22.4929 14.9758L23.7445 15.5265V24.3379V33.1743L21.6918 34.1505C19.3638 35.277 15.4838 37.7051 15.4838 38.0555C15.4838 38.1807 15.3086 38.2808 15.1084 38.2808C14.6077 38.2808 9.97675 42.7616 8.37468 44.7892C6.89778 46.6416 5.22062 48.9946 5.22062 49.1699C5.22062 49.245 4.61984 50.5717 3.86887 52.1237C1.16539 57.7559 0.214163 61.6359 0.0389376 67.7939C-0.16132 73.6765 0.389389 77.3312 2.19171 82.2125C6.27197 93.3768 13.7066 100.962 25.1213 105.668C29.0013 107.245 33.8575 108.121 38.889 108.121C43.545 108.121 47.425 107.52 51.0297 106.243L52.1311 105.843L54.2338 106.919L56.3615 107.996L86.3001 108.071C113.335 108.146 116.389 108.096 117.791 107.745C118.617 107.52 119.593 107.145 119.893 106.919C121.345 105.893 123.548 103.365 124.249 101.988C124.95 100.586 125 100.311 125 97.5823V94.6785L123.573 91.95C122.797 90.4481 121.646 88.1451 120.995 86.8434C120.344 85.5417 119.393 83.6143 118.867 82.5879C117.791 80.4352 113.761 72.7252 111.157 67.869C110.156 66.0166 109.355 64.3895 109.355 64.2393C109.355 64.0641 108.554 62.462 107.603 60.6847C106.651 58.8824 105.024 55.7784 103.998 53.7758C102.972 51.7482 101.77 49.5704 101.37 48.8945L100.594 47.693V38.2308C100.594 29.2692 100.619 28.7686 101.044 28.7686C101.294 28.7686 102.196 28.5433 103.047 28.2429C106.551 27.0664 108.679 22.6106 107.527 18.8808C106.802 16.5028 104.449 14.2749 101.945 13.549C100.543 13.1485 73.1331 13.1234 71.6813 13.5239C70.4297 13.8744 68.0766 15.3763 67.8764 15.9521C67.8013 16.1774 67.4759 16.7281 67.1504 17.1536C65.3481 19.5817 65.8738 24.0875 68.2769 26.8161C69.0279 27.6922 71.431 28.7686 72.6075 28.7686C73.033 28.7686 73.058 29.2692 73.058 38.1557C73.058 47.2424 72.9329 48.7944 72.2821 48.7944C72.1569 48.7944 71.7564 48.3188 71.3809 47.718C70.1793 45.7905 67.4508 42.4362 65.7987 40.8341C64.3218 39.3823 59.4405 35.9278 57.9135 35.2269C57.5631 35.0767 57.2877 34.8764 57.2877 34.7763C57.2877 34.6762 56.5618 34.3007 55.6606 33.9002L54.0335 33.2243V24.3879V15.5515L54.9597 15.2261C55.4604 15.0759 56.4366 14.375 57.0875 13.6992C60.2165 10.5952 60.5169 6.33968 57.8635 2.81013C56.8622 1.45838 56.3365 1.05787 54.8346 0.482124C53.5579 0.0065155 52.9822 -0.0185165 38.8139 0.0065155C28.2253 0.0065155 23.8947 0.106644 23.344 0.3069ZM53.2826 5.11309C54.9848 5.98922 55.5104 7.81658 54.5342 9.44367C53.5829 10.9957 53.6831 10.9957 38.8389 10.9957C26.2728 10.9957 25.2965 10.9706 24.5205 10.5451C23.5943 10.0444 22.7432 8.71774 22.7432 7.79155C22.7432 6.89038 23.4441 5.76393 24.3202 5.23826C25.0962 4.76264 25.672 4.73761 38.8389 4.73761C50.4539 4.73761 52.6568 4.78767 53.2826 5.11309ZM49.2774 25.7397C49.2774 37.3296 49.0771 36.5035 52.081 37.63C55.6356 38.9567 57.7383 40.2834 61.6433 43.6377C63.9964 45.6654 67.1254 49.4953 68.402 51.8984L69.5535 54.0762L68.7275 55.7534C68.2519 56.6796 67.7262 57.781 67.5259 58.2065C67.3257 58.6321 65.8488 61.5358 64.2217 64.6398L61.2428 70.3221L60.5419 69.9467C60.1414 69.7464 59.6908 69.5712 59.5406 69.5712C59.3904 69.5712 58.4642 69.1957 57.4629 68.7201C54.7094 67.4434 52.2062 66.9428 48.5264 66.9428C44.321 66.9678 41.5925 67.6437 36.6361 69.9467C33.8826 71.2233 31.2542 71.6989 28.05 71.4986C25.9473 71.3735 23.8697 70.8228 20.8658 69.6212C16.2598 67.7438 14.8831 67.3183 12.6802 67.0429C8.42475 66.5172 7.47352 67.093 7.47352 70.1719C7.47352 76.2297 10.1269 83.4641 14.2322 88.5456C14.9081 89.3967 15.4838 90.1477 15.4838 90.2228C15.4838 90.2728 16.0095 90.8236 16.6353 91.3993C22.2175 96.5559 28.05 99.4347 34.7337 100.386C38.6888 100.937 45.1721 100.386 48.0508 99.2344C48.3762 99.1092 48.5264 99.3345 48.7517 100.161C48.9269 100.761 49.1022 101.362 49.1773 101.512C49.2774 101.763 48.5264 102.013 45.1471 102.789C42.5688 103.39 35.6098 103.365 32.6309 102.789C29.9275 102.238 25.8222 100.912 23.6694 99.8852C21.5417 98.8589 17.8619 96.3807 16.4851 95.079C13.7316 92.4256 11.1533 89.4218 9.82655 87.319C8.19946 84.7407 6.14681 80.0597 5.62113 77.7567C4.24436 71.6989 4.54474 63.1629 6.297 58.3066C7.27326 55.6282 8.90036 52.2488 10.0518 50.5466C11.0531 49.0948 15.4338 44.0383 16.5102 43.1121C18.6129 41.2847 23.2689 38.2808 23.9948 38.2808C24.5706 38.2808 27.3491 36.854 27.8748 36.2783C28.3504 35.7526 28.3755 35.327 28.4506 25.7397L28.5257 15.7518H38.889H49.2774V25.7397ZM100.769 18.0297C101.77 18.4052 102.546 19.2063 102.871 20.1825C103.272 21.3841 102.621 23.0612 101.495 23.7621C100.669 24.2377 100.318 24.2628 86.8258 24.2628C73.3835 24.2628 72.9579 24.2377 72.1819 23.7621C69.954 22.3854 70.2294 19.1562 72.6575 18.1048C73.6588 17.6793 99.6423 17.6042 100.769 18.0297ZM96.0877 38.8065V48.5941L97.6147 51.7732C98.4658 53.5005 99.4921 55.6032 99.8926 56.4292C100.869 58.4068 105.45 67.118 107.628 71.1232C108.579 72.8754 109.355 74.4525 109.355 74.6277C109.38 74.8029 110.031 76.1797 110.832 77.7067C111.633 79.2086 113.36 82.4878 114.662 84.966C115.963 87.4442 117.615 90.5482 118.341 91.8749C120.344 95.6047 120.694 97.1567 120.069 99.5348C119.843 100.361 119.443 101.012 118.742 101.663C116.839 103.465 118.742 103.365 86.8008 103.365C59.1401 103.365 58.0387 103.34 56.9873 102.889C55.5355 102.263 54.0836 100.811 53.633 99.5598C52.857 97.382 52.9822 97.0566 57.3128 88.3203C59.5406 83.8646 61.4431 80.1598 61.5432 80.0847C61.6433 80.0096 62.4444 78.5577 63.2955 76.8305C64.1466 75.1033 65.5233 72.4999 66.3244 71.023C67.1504 69.5461 67.8013 68.2194 67.8013 68.0692C67.8013 67.894 69.0028 65.4909 70.4797 62.7123C71.9566 59.9588 74.1845 55.6532 75.4862 53.175L77.7891 48.6692L77.8142 38.8316V29.0189H86.951H96.0877V38.8065ZM54.0335 72.3247C55.5355 72.8254 58.7897 74.4525 58.7897 74.7028C58.7897 74.853 57.3378 77.982 56.6619 79.3337C53.633 85.1913 52.3313 87.6695 50.8294 90.4481L49.0521 93.6772L47.6002 94.253C44.1959 95.6548 38.914 96.1805 35.1091 95.5046C30.8537 94.7787 27.8247 93.6272 24.7958 91.6246C23.9698 91.0488 23.1437 90.5983 22.9935 90.5983C22.8433 90.5983 21.6167 89.4968 20.265 88.1451C17.9871 85.8922 15.4838 82.5629 15.4838 81.7869C15.4838 81.6117 15.2335 81.061 14.9582 80.5854C13.8818 78.8581 12.0544 72.1745 12.505 71.7239C12.7804 71.4236 15.1334 72.2246 18.3626 73.6765C23.0186 75.8042 24.145 76.1046 28.4005 76.2548C32.8562 76.43 34.6586 76.0545 38.864 74.1521C40.5411 73.4011 42.4937 72.55 43.2446 72.2997C45.9982 71.2734 51.0046 71.2984 54.0335 72.3247Z" fill="white"/>
<path d="M43.6198 18.4303C43.3194 18.4804 42.8188 18.8058 42.4934 19.1563L41.8926 19.8071V27.7924V35.7777L42.5935 36.4536C43.5447 37.4048 44.9966 37.4048 45.9478 36.4536L46.6487 35.7777L46.7238 28.4432C46.7739 23.587 46.7238 20.8084 46.5235 20.1826C46.1481 18.931 44.9215 18.18 43.6198 18.4303Z" fill="white"/>
<path d="M47.8758 39.6326C46.9747 40.0331 46.7744 40.4336 46.7744 41.8855C46.7744 43.2122 47.0748 43.4876 49.6281 44.6641C51.4304 45.4902 53.1076 46.4915 55.9613 48.494C56.562 48.8946 57.7636 50.1211 58.6647 51.1975C62.3945 55.6783 61.969 55.3028 63.1705 55.3028C64.0717 55.3028 64.3721 55.1776 64.8978 54.5268C65.7989 53.4755 65.7489 52.4491 64.6975 50.9222C63.8965 49.7206 59.7161 45.4401 58.1891 44.2636C57.7886 43.9382 57.1878 43.4375 56.8374 43.1121C56.0614 42.3862 50.3791 39.5575 49.4028 39.4073C49.0023 39.3322 48.3014 39.4324 47.8758 39.6326Z" fill="white"/>
<path d="M89.229 32.3982L88.5781 32.999V41.9606V50.9221L91.6821 56.8047C93.4094 60.0338 95.0364 62.9376 95.3368 63.238C95.7374 63.6635 96.1879 63.8137 96.9389 63.8137C98.4659 63.8137 99.0917 63.1378 99.0917 61.5608C99.0917 60.5345 98.8163 59.8586 97.3394 57.1051C96.3882 55.3028 95.0865 52.8246 94.4607 51.5729L93.3343 49.295V41.7102C93.3343 36.9291 93.2341 33.8251 93.0589 33.3244C92.5082 31.7474 90.4806 31.2467 89.229 32.3982Z" fill="white"/>
<path d="M89.7047 65.1656C89.0288 65.3409 87.2766 66.0167 85.8247 66.6676C83.4967 67.744 82.946 67.8942 81.0435 68.0193C78.7406 68.1445 78.0897 67.9943 75.2611 66.7927C73.7341 66.1169 73.5088 66.0918 72.6577 66.3672C71.6815 66.7176 71.0056 67.7189 68.8778 71.9995C66.6249 76.5303 64.4722 80.7607 62.1191 85.2165C57.1377 94.6286 56.2866 96.481 56.2866 97.8327C56.2866 98.7089 56.9124 99.8854 57.6634 100.411C57.7886 100.511 70.9555 100.611 86.9011 100.611H115.913L116.765 99.7602C118.066 98.4586 117.966 97.5324 116.089 93.7775C115.238 92.1004 114.361 90.4482 114.111 90.0978C113.736 89.5471 112.885 87.8699 107.903 77.9571C105.675 73.5014 102.822 68.2196 102.371 67.7189C101.77 67.0431 98.6913 65.5912 96.9641 65.1907C95.1617 64.7401 91.4319 64.7401 89.7047 65.1656ZM97.7901 70.2973C98.491 70.6227 99.0918 71.0482 99.0918 71.2235C99.0918 71.4237 100.243 73.7517 101.645 76.4051C103.022 79.0335 105.2 83.1889 106.451 85.592C107.703 87.9951 108.854 90.1979 109.005 90.4733C109.155 90.7486 109.806 92.0753 110.431 93.402L111.608 95.8552H86.8009H62.019L63.6962 92.6511C65.2231 89.7974 66.0993 88.0201 68.6776 82.8384C69.4286 81.2864 74.1096 72.3249 74.41 71.8743C74.4851 71.7491 75.3111 71.8493 76.2373 72.0996C78.4402 72.6753 82.3452 72.7004 84.4229 72.1747C85.2489 71.9494 86.7509 71.3736 87.7021 70.898C90.2554 69.6214 90.4306 69.5964 93.5847 69.6464C95.9878 69.6965 96.6887 69.7966 97.7901 70.2973Z" fill="white"/>
</svg>
