<svg width="138" height="139" viewBox="0 0 138 139" fill="none" xmlns="http://www.w3.org/2000/svg">
<path d="M54.433 1.20467C33.7732 5.59642 16.3918 19.0809 6.92783 38.0088C1.91753 48.0913 0 56.5036 0 68.6273C0 81.6789 2.04124 90.3387 7.6701 101.225C20.4124 125.782 47.0103 140.318 74.5979 137.906C91.5464 136.421 105.402 130.05 117.278 118.421C124.021 111.741 127.237 107.473 131.01 99.8026C136.021 89.782 137.938 81.184 138 69.3078C138 56.7511 135.959 47.9676 130.639 37.3902C121.237 18.648 102.928 4.85414 82.0825 0.895386C75.2165 -0.40358 61.2371 -0.279877 54.433 1.20467ZM58.0825 16.5449C49.1753 25.8232 43.2371 34.916 39.2784 45.4315C37.4227 50.3181 35.3196 59.2871 35.2577 62.2562C35.2577 63.3696 35.0722 64.2974 34.8866 64.2974C33.8969 64.2974 24.1237 56.7511 19.6701 52.5449L14.7216 47.9057L16.0206 44.9985C21.0309 33.3696 32.9691 21.3696 44.9072 15.9882C48.5567 14.3181 60.7423 10.6686 63.0309 10.5449C63.4639 10.483 61.2371 13.2047 58.0825 16.5449ZM86.7216 13.6376C88.701 14.3181 91.8557 15.4933 93.7732 16.3593L97.2371 17.9057L89.8144 25.1428C76.6392 38.1325 70.701 48.4005 67.7938 63.3078C66.433 70.05 66.433 70.1119 64.268 70.8541C61.1753 71.9676 52.9485 71.9057 48.6804 70.6686L44.9691 69.6789L45.3402 64.3593C45.8969 57.1222 47.6907 50.9985 51.6495 42.9572C56.8454 32.3181 63.9588 23.782 74.4742 15.4933C79.8557 11.2253 79.6082 11.2871 86.7216 13.6376ZM110.845 28.916C118.515 36.8335 123.711 46.5449 125.753 56.8748C126.742 61.5758 127.856 74.1325 127.237 73.5758C127.113 73.3902 124.763 70.3593 122.165 66.7717C113.876 55.5758 103.732 46.7923 93.2784 41.6583L89.7526 39.9263L92.3505 36.8954C95.1959 33.4315 105.093 24.7717 106.144 24.7098C106.515 24.7098 108.619 26.5655 110.845 28.916ZM89.567 51.2459C101.938 57.4933 112.825 68.8129 120.062 83.0397L123.278 89.4108L122.103 92.4418C120.866 95.782 114.742 105.308 112.701 107.225C111.402 108.339 111.402 108.277 108.68 102.895C102.742 91.2047 93.5876 80.8129 82.8866 73.6376C77.3814 69.9882 77.0722 69.617 77.1959 67.7614C77.6907 62.3181 82.5773 48.8335 84.1237 48.8335C84.4948 48.8335 86.9072 49.9469 89.567 51.2459ZM14.9072 62.1944C23.134 69.4933 33.7113 76.1737 41.7526 79.081C51.7113 82.6686 59.6289 83.0397 67.9794 80.1944L72.3093 78.7717L76.5773 81.617C81.3402 84.7717 88.4536 90.7717 88.4536 91.5758C88.4536 92.5655 83.2577 95.4727 77.8763 97.5139C66.1237 101.968 53.0103 101.72 37.1134 96.7717C31.6701 95.0397 14.8454 87.1222 13.6701 85.6995C12.2474 83.9675 11.134 76.2974 11.134 67.8232C11.134 63.184 11.2577 59.349 11.4433 59.349C11.567 59.349 13.1753 60.648 14.9072 62.1944ZM97.5464 103.39C99.4639 106.669 100.825 109.638 102.371 113.844L103.175 116.071L98.4742 118.854C88.6392 124.607 80.4124 126.834 68.9691 126.834C51.7113 126.834 38.9072 121.081 25.3608 107.225C22.1443 103.947 20.0412 101.411 20.7216 101.658C21.4021 101.906 25.299 103.328 29.3814 104.813C43.0515 109.7 46.4536 110.318 59.3814 110.38C68.4124 110.38 71.6289 110.132 74.7216 109.267C80.5979 107.658 86.4742 105.184 90.6186 102.586C92.6598 101.349 94.6392 100.236 94.9485 100.236C95.3196 100.174 96.433 101.658 97.5464 103.39Z" fill="white"/>
</svg>
